<svg width="40" height="41" viewBox="0 0 40 41" fill="none" xmlns="http://www.w3.org/2000/svg">
  <path d="M19.5196 3.3084V4.25353C25.1922 4.7261 29.66 9.46527 29.66 15.2306C29.66 18.4575 28.2655 21.3604 26.0452 23.3722V16.7698L27.1147 15.7031V12.5167H26.0452V13.5833H24.9756V12.5167H23.9061V13.5833H22.8501V12.5167H21.7805V15.7031L22.8501 16.7698V19.1866H21.7805V18.12H20.562V13.1648H20.7516L21.0765 12.5977V11.0585H20.3048V8.56064H21.5233C21.239 8.14208 18.9509 4.28053 18.8426 3.71345C18.9916 3.63244 19.0863 3.49742 19.0863 3.3354C19.0863 3.13287 18.9374 2.97085 18.7208 2.91684V2.02572C19.0186 2.03922 19.7362 2.09323 20.535 2.22824C21.591 2.41727 22.3897 1.40463 22.3897 1.40463C22.3897 1.40463 21.0765 1.80969 20.3454 1.12109C19.7903 0.608015 19.0593 0.608015 18.7208 0.635019V0.5H18.3959V2.93034C18.1792 2.97085 18.0303 3.13287 18.0303 3.3489C18.0303 3.51093 18.1386 3.63244 18.274 3.72696C18.1657 4.28053 15.8912 8.14208 15.6069 8.56064H16.7983V11.0585H16.0537V12.5977L16.3651 13.1648H16.5546V18.1335H15.3768V19.2001H14.3208V16.9723L15.3903 15.9057V12.7327H14.3208V13.7994H13.2512V12.7327H12.1817V13.7994H11.1121V12.7327H10.0426V15.9192L11.1121 16.9858V23.3587C8.9324 21.3334 7.55146 18.444 7.55146 15.2306C7.55146 9.54628 11.8838 4.86112 17.4346 4.28053V3.3354C11.3693 3.91598 6.60376 9.03321 6.60376 15.2306C6.60376 21.1039 10.8549 25.9916 16.4598 27.0042V24.5064C16.4598 23.3452 17.394 22.4001 18.5583 22.3866C18.5719 22.3866 18.5719 22.3866 18.5854 22.3866C18.5854 22.3866 18.5854 22.3866 18.5989 22.3866C19.7768 22.3866 20.7245 23.3317 20.7245 24.5064V27.0313C26.343 26.0321 30.6077 21.1309 30.6077 15.2441C30.6077 8.93869 25.7067 3.76746 19.5196 3.3084ZM12.1952 17.6069C12.1952 17.3099 12.4389 17.0803 12.7232 17.0803C13.021 17.0803 13.2512 17.3234 13.2512 17.6069V19.2001H12.1817V17.6069H12.1952ZM23.9061 17.6069C23.9061 17.3099 24.1498 17.0803 24.4341 17.0803C24.7319 17.0803 24.9621 17.3234 24.9621 17.6069V19.2001H23.8925V17.6069H23.9061Z" fill="url(#paint0_linear_19194_458460)"/>
  <path d="M4.51091 36.1C4.10452 36.6377 3.46242 36.9654 2.88535 36.9654C1.86126 36.9654 1.21916 36.058 1.21916 34.8818C1.21916 33.7223 1.87751 32.8402 2.86097 32.8402C3.62498 32.8402 4.15329 33.2855 4.40525 33.9408V32.3277C4.14516 32.1848 3.65749 32 2.95038 32C0.991586 32 0 33.5039 0 35.0414C0 36.4865 0.877799 37.8475 2.73906 37.8475C3.4543 37.8475 4.1289 37.5199 4.51091 37.0662V36.1Z" fill="url(#paint1_linear_19194_458460)"/>
  <path d="M6.47516 36.6461C6.10941 37.6039 5.7843 37.7131 5.71115 37.7215H7.53177C7.45862 37.7131 7.19853 37.6459 7.19853 37.2846C7.19853 37.2006 7.22291 37.083 7.27981 36.915L7.45049 36.3941H9.52307C9.64499 36.7469 9.81567 37.167 9.81567 37.3266C9.81567 37.6459 9.57996 37.7131 9.51494 37.7215H11.7013C11.6282 37.7047 11.2705 37.5787 10.9292 36.6713L9.14106 32.126H8.18199L6.47516 36.6461ZM7.7187 35.6631L8.47459 33.5963L9.24673 35.6631H7.7187Z" fill="url(#paint2_linear_19194_458460)"/>
  <path d="M12.9292 37.4275C13.3193 37.6795 13.9289 37.8475 14.5303 37.8475C15.7007 37.8475 16.5867 37.2594 16.5867 36.1672C16.5867 35.1422 15.7901 34.7221 15.0668 34.3861C14.506 34.1172 14.0183 33.8904 14.0183 33.4367C14.0183 33.0922 14.2784 32.8234 14.8229 32.8234C15.465 32.8234 16.0177 33.3107 16.229 33.7223V32.3865C15.9364 32.1764 15.4163 32.0084 14.8961 32.0084C13.8232 32.0084 12.9536 32.5797 12.9536 33.6803C12.9536 34.4617 13.49 34.865 14.0508 35.1674C14.7335 35.5371 15.4732 35.7807 15.4732 36.3773C15.4732 36.7805 15.0586 37.0158 14.5629 37.0158C13.9208 37.0158 13.3274 36.7301 12.9292 35.8396V37.4275Z" fill="url(#paint3_linear_19194_458460)"/>
  <path d="M18.4564 36.8562C18.4564 37.6375 18.0906 37.7131 18.0337 37.7215H20.025C19.96 37.7131 19.6105 37.6123 19.6105 36.8562V33.0334C19.6105 32.2184 19.9925 32.1344 20.0331 32.126H18.0337C18.0906 32.1428 18.4564 32.2436 18.4564 33.0334V36.8562Z" fill="url(#paint4_linear_19194_458460)"/>
  <path d="M21.89 36.8057C21.89 37.6375 21.5323 37.7131 21.4754 37.7215H23.2798C23.1985 37.7131 22.7921 37.6123 22.7921 36.8057V33.9576L24.6046 36.2428C25.2711 37.083 25.4743 37.7215 25.4743 37.7215H26.3196V33.0502C26.3196 32.2184 26.6853 32.1344 26.7422 32.126H24.9785C25.0517 32.1428 25.4255 32.2436 25.4255 33.0502V35.4279L22.8734 32.126H21.1503C21.2072 32.1512 21.89 32.4705 21.89 33.1174V36.8057Z" fill="url(#paint5_linear_19194_458460)"/>
  <path d="M28.5113 36.8562C28.5113 37.6375 28.1455 37.7131 28.0886 37.7215H30.0799C30.0149 37.7131 29.6654 37.6123 29.6654 36.8562V33.0334C29.6654 32.2184 30.0474 32.1344 30.0881 32.126H28.0886C28.1455 32.1428 28.5113 32.2436 28.5113 33.0334V36.8562Z" fill="url(#paint6_linear_19194_458460)"/>
  <path d="M31.9855 36.6461C31.6198 37.6039 31.2947 37.7131 31.2215 37.7215H33.0421C32.969 37.7131 32.7089 37.6459 32.7089 37.2846C32.7089 37.2006 32.7333 37.083 32.7902 36.915L32.9609 36.3941H35.0334C35.1554 36.7469 35.326 37.167 35.326 37.3266C35.326 37.6459 35.0903 37.7131 35.0253 37.7215H37.2117C37.1385 37.7047 36.7809 37.5787 36.4395 36.6713L34.6514 32.126H33.6924L31.9855 36.6461ZM33.2291 35.6631L33.985 33.5963L34.7571 35.6631H33.2291Z" fill="url(#paint7_linear_19194_458460)"/>
  <defs>
    <linearGradient id="paint0_linear_19194_458460" x1="6.60376" y1="27.0313" x2="6.60376" y2="0.5" gradientUnits="userSpaceOnUse">
      <stop offset="0.0343337" stop-color="#A66E26"/>
      <stop offset="0.321465" stop-color="#F3C046"/>
      <stop offset="0.447409" stop-color="#F3C858"/>
      <stop offset="0.805411" stop-color="#F0C25B"/>
      <stop offset="1" stop-color="#BF8335"/>
    </linearGradient>
    <linearGradient id="paint1_linear_19194_458460" x1="0" y1="38.1822" x2="0" y2="31.4075" gradientUnits="userSpaceOnUse">
      <stop offset="0.0343337" stop-color="#A66E26"/>
      <stop offset="0.321465" stop-color="#F3C046"/>
      <stop offset="0.447409" stop-color="#F3C858"/>
      <stop offset="0.805411" stop-color="#F0C25B"/>
      <stop offset="1" stop-color="#BF8335"/>
    </linearGradient>
    <linearGradient id="paint2_linear_19194_458460" x1="0" y1="38.1822" x2="0" y2="31.4075" gradientUnits="userSpaceOnUse">
      <stop offset="0.0343337" stop-color="#A66E26"/>
      <stop offset="0.321465" stop-color="#F3C046"/>
      <stop offset="0.447409" stop-color="#F3C858"/>
      <stop offset="0.805411" stop-color="#F0C25B"/>
      <stop offset="1" stop-color="#BF8335"/>
    </linearGradient>
    <linearGradient id="paint3_linear_19194_458460" x1="0" y1="38.1822" x2="0" y2="31.4075" gradientUnits="userSpaceOnUse">
      <stop offset="0.0343337" stop-color="#A66E26"/>
      <stop offset="0.321465" stop-color="#F3C046"/>
      <stop offset="0.447409" stop-color="#F3C858"/>
      <stop offset="0.805411" stop-color="#F0C25B"/>
      <stop offset="1" stop-color="#BF8335"/>
    </linearGradient>
    <linearGradient id="paint4_linear_19194_458460" x1="0" y1="38.1822" x2="0" y2="31.4075" gradientUnits="userSpaceOnUse">
      <stop offset="0.0343337" stop-color="#A66E26"/>
      <stop offset="0.321465" stop-color="#F3C046"/>
      <stop offset="0.447409" stop-color="#F3C858"/>
      <stop offset="0.805411" stop-color="#F0C25B"/>
      <stop offset="1" stop-color="#BF8335"/>
    </linearGradient>
    <linearGradient id="paint5_linear_19194_458460" x1="0" y1="38.1822" x2="0" y2="31.4075" gradientUnits="userSpaceOnUse">
      <stop offset="0.0343337" stop-color="#A66E26"/>
      <stop offset="0.321465" stop-color="#F3C046"/>
      <stop offset="0.447409" stop-color="#F3C858"/>
      <stop offset="0.805411" stop-color="#F0C25B"/>
      <stop offset="1" stop-color="#BF8335"/>
    </linearGradient>
    <linearGradient id="paint6_linear_19194_458460" x1="0" y1="38.1822" x2="0" y2="31.4075" gradientUnits="userSpaceOnUse">
      <stop offset="0.0343337" stop-color="#A66E26"/>
      <stop offset="0.321465" stop-color="#F3C046"/>
      <stop offset="0.447409" stop-color="#F3C858"/>
      <stop offset="0.805411" stop-color="#F0C25B"/>
      <stop offset="1" stop-color="#BF8335"/>
    </linearGradient>
    <linearGradient id="paint7_linear_19194_458460" x1="0" y1="38.1822" x2="0" y2="31.4075" gradientUnits="userSpaceOnUse">
      <stop offset="0.0343337" stop-color="#A66E26"/>
      <stop offset="0.321465" stop-color="#F3C046"/>
      <stop offset="0.447409" stop-color="#F3C858"/>
      <stop offset="0.805411" stop-color="#F0C25B"/>
      <stop offset="1" stop-color="#BF8335"/>
    </linearGradient>
  </defs>
</svg>
