<svg width="215" height="46" fill="none" xmlns="http://www.w3.org/2000/svg"><path d="M192.354 7.829c-1.039 4.522-4.087 7.236-8.659 7.723 4.226.21 6.927 3.201 6.719 7.654.832-4.314 4.087-7.375 8.659-7.654-4.849-.417-6.927-3.618-6.719-7.723zM179.612 12.582c-.416 1.81-1.635 2.895-3.464 3.09 1.691.083 2.771 1.28 2.688 3.061.333-1.726 1.635-2.95 3.464-3.062-1.94-.166-2.771-1.447-2.688-3.089zM186.026 0c-.547 2.385-2.154 3.816-4.565 4.073 2.228.11 3.652 1.687 3.543 4.035.438-2.274 2.155-3.889 4.565-4.035-2.556-.22-3.652-1.908-3.543-4.073z" fill="#FFE600"/><path d="M21.814 28.803h8.98l-2.628 13.265c-1.635 1.172-3.519 2.08-5.65 2.724-2.103.615-4.366.922-6.79.922-3.125 0-5.885-.57-8.28-1.713-2.365-1.171-4.204-2.796-5.519-4.876C.642 37.046 0 34.66 0 31.965c0-3.572.832-6.75 2.497-9.531 1.664-2.782 3.986-4.95 6.965-6.502 2.978-1.58 6.395-2.372 10.25-2.372 6.366 0 11.01 2.006 13.93 6.018l-7.403 5.755c-.964-1.23-2-2.094-3.11-2.592-1.11-.527-2.41-.79-3.899-.79-1.781 0-3.344.395-4.687 1.185-1.314.791-2.336 1.904-3.066 3.339-.701 1.405-1.052 3.016-1.052 4.832 0 1.815.599 3.28 1.796 4.392 1.198 1.084 2.848 1.626 4.95 1.626 1.052 0 2.059-.147 3.023-.44l1.62-8.082z" fill="url(#a)"/><path d="M64.591 24.366c0 2.724-.73 5.11-2.19 7.16-1.43 2.02-3.46 3.529-6.088 4.525l5.125 8.96H50.706l-4.337-7.73h-2.54l-1.534 7.73H31.957l6.133-30.748h13.754c4.03 0 7.155.893 9.375 2.68 2.248 1.757 3.372 4.231 3.372 7.423zm-10.469 1.01c0-2.079-1.285-3.118-3.854-3.118h-3.46l-1.447 7.204h4.25c1.43 0 2.54-.352 3.329-1.055.788-.732 1.182-1.742 1.182-3.03z" fill="url(#b)"/><path d="m79.315 22.082-.701 3.602H91.58l-1.49 7.467H77.08l-.788 4.042h15.376l-1.577 7.819H64.597l6.132-30.749h24.925l-1.577 7.82H79.315z" fill="url(#c)"/><path d="M116.41 39.653h-11.695l-3.067 5.358H90.741l19.537-30.748h10.162l7.272 30.748h-10.294l-1.008-5.358zm-1.445-7.468-1.489-7.863-4.512 7.863h6.001z" fill="url(#d)"/><path d="M138.992 22.302h-8.98l1.621-8.039h28.297l-1.621 8.039h-8.979l-4.512 22.71H134.48l4.512-22.71z" fill="url(#e)"/><path d="m186.432 25.73-9.559 19.285h-4.957l-1.996-12.008-5.954 12.008h-4.893l-3.057-19.285h4.57l1.899 12.976 6.502-12.976h4.313l1.963 12.976 6.438-12.976h4.731zM188.698 25.73h4.989l-3.444 19.285h-4.989l3.444-19.285zM208.423 25.443c1.931 0 3.465.574 4.602 1.721 1.138 1.123 1.706 2.736 1.706 4.84 0 .788-.075 1.564-.225 2.33l-1.931 10.681h-5.021l1.866-10.323c.086-.407.129-.849.129-1.327 0-1.003-.247-1.768-.74-2.294-.494-.526-1.234-.788-2.221-.788-1.288 0-2.36.418-3.219 1.254-.837.813-1.405 2.043-1.706 3.692l-1.738 9.786h-5.021l3.444-19.285h4.764l-.386 2.08c1.545-1.578 3.444-2.367 5.697-2.367z" fill="#131E3C"/><defs><linearGradient id="a" x1="160" y1="13.715" x2="0" y2="45.715" gradientUnits="userSpaceOnUse"><stop stop-color="#FF2164"/><stop offset="1" stop-color="#FF0340"/></linearGradient><linearGradient id="b" x1="160" y1="13.715" x2="0" y2="45.715" gradientUnits="userSpaceOnUse"><stop stop-color="#FF2164"/><stop offset="1" stop-color="#FF0340"/></linearGradient><linearGradient id="c" x1="160" y1="13.715" x2="0" y2="45.715" gradientUnits="userSpaceOnUse"><stop stop-color="#FF2164"/><stop offset="1" stop-color="#FF0340"/></linearGradient><linearGradient id="d" x1="160" y1="13.715" x2="0" y2="45.715" gradientUnits="userSpaceOnUse"><stop stop-color="#FF2164"/><stop offset="1" stop-color="#FF0340"/></linearGradient><linearGradient id="e" x1="160" y1="13.715" x2="0" y2="45.715" gradientUnits="userSpaceOnUse"><stop stop-color="#FF2164"/><stop offset="1" stop-color="#FF0340"/></linearGradient></defs></svg>