<svg width="129" height="38" viewBox="0 0 129 38" fill="none" xmlns="http://www.w3.org/2000/svg">
    <path fill-rule="evenodd" clip-rule="evenodd"
          d="M58.0693 4.0568L52.5566 31.1318L56.2699 34.9997H68.1076C69.8913 34.9997 71.5828 34.5808 73.0517 33.8809C74.5207 33.181 75.6748 32.1699 76.5492 30.8868C77.4585 29.5647 77.8782 28.0094 77.8782 26.2207C77.8782 24.8986 77.5985 23.6933 77.0738 22.6822C76.8348 22.2216 76.5376 21.8014 76.1857 21.4287C76.1304 21.3643 76.0736 21.3012 76.0153 21.2393C75.9565 21.1705 75.8959 21.1031 75.8337 21.0373C75.7782 20.9727 75.7212 20.9094 75.6628 20.8474C75.6062 20.7814 75.5481 20.7169 75.4885 20.6536C75.4318 20.5874 75.3735 20.5225 75.3135 20.4589C75.2562 20.392 75.1971 20.3263 75.1364 20.262C75.1069 20.2276 75.077 20.1935 75.0466 20.1599C75.7857 19.8221 76.469 19.3759 77.0738 18.8717C77.7733 18.2884 78.3329 17.5884 78.7176 16.7719C79.1023 15.9553 79.3122 15.061 79.3122 14.0501C79.3122 12.3996 78.3902 10.4196 77.4011 9.37512C77.3461 9.3107 77.4597 9.43716 77.4011 9.37512C77.3426 9.30657 77.4636 9.44098 77.4011 9.37512C77.3461 9.3107 77.4597 9.43716 77.4011 9.37512C77.344 9.30824 77.462 9.43947 77.4011 9.37512C77.3449 9.30928 77.461 9.43849 77.4011 9.37512C77.344 9.30824 77.462 9.43947 77.4011 9.37512C77.3469 9.31174 77.4588 9.43619 77.4011 9.37512C77.3475 9.31256 77.458 9.43543 77.4011 9.37512C77.3426 9.30657 77.4636 9.44098 77.4011 9.37512C77.344 9.30824 77.462 9.43947 77.4011 9.37512C77.1571 9.08937 72.9374 5.26223 72.6233 5.02377C71.1893 3.93502 69.506 4.0568 66.9529 4.0568H58.0693ZM67.7413 23.5209H64.677L64.2444 26.0155C64.9678 25.9039 65.5505 25.6023 66.0086 25.093C66.4093 24.6475 67.6055 24.1315 67.7413 23.5209ZM69.356 13.0402H67.8441L67.4505 14.9259C67.6953 14.8487 67.929 14.7381 68.1553 14.5944C68.6099 14.2832 68.9597 13.8944 69.2046 13.3889C69.2607 13.273 69.3113 13.1571 69.356 13.0402Z"
          fill="url(#paint0_linear_12364_71449)"/>
    <path fill-rule="evenodd" clip-rule="evenodd"
          d="M56.558 3.08984L50.6445 29.1979L54.4067 33.0658H66.3364C68.2498 33.0658 70.0643 32.6599 71.64 31.9819C73.2158 31.3039 74.4538 30.3244 75.3918 29.0814C76.3672 27.8006 76.8174 26.2939 76.8174 24.5611C76.8174 23.2804 76.5173 22.1127 75.9545 21.1332C75.6981 20.687 75.3793 20.2799 75.0018 19.9189C74.9426 19.8564 74.8816 19.7953 74.8191 19.7354C74.756 19.6688 74.691 19.6035 74.6243 19.5397C74.5647 19.4771 74.5036 19.4158 74.4409 19.3558C74.3802 19.2918 74.3179 19.2293 74.254 19.168C74.1931 19.1039 74.1306 19.041 74.0663 18.9794C74.0047 18.9145 73.9413 18.8509 73.8762 18.7886C73.8446 18.7553 73.8125 18.7223 73.7799 18.6897C74.5727 18.3625 75.3057 17.9303 75.9545 17.4417C76.7048 16.8767 77.3051 16.1986 77.7178 15.4076C78.1305 14.6166 78.3556 13.7502 78.3556 12.7708C78.3556 11.172 77.8359 9.83406 76.7748 8.82219C76.7158 8.75979 76.6548 8.69853 76.5919 8.63843C76.5292 8.57203 76.4644 8.50691 76.3974 8.4431C76.3382 8.38056 76.2769 8.31916 76.2138 8.25891C76.1536 8.19513 76.0911 8.13252 76.0269 8.07113C75.9663 8.00709 75.9038 7.94425 75.8392 7.88262C75.7779 7.81783 75.7147 7.75426 75.6493 7.69192C75.5896 7.62877 75.5278 7.56678 75.4641 7.50596C75.4034 7.44177 75.3407 7.37879 75.276 7.31702C75.2151 7.25263 75.1522 7.18945 75.0872 7.12749C75.0256 7.06237 74.9619 6.99849 74.8961 6.93586C74.838 6.87447 74.7779 6.81418 74.716 6.75501C74.6542 6.68961 74.5904 6.62545 74.5245 6.56256C74.4629 6.49744 74.3991 6.43356 74.3334 6.37094C74.2759 6.31034 74.2167 6.25083 74.1556 6.19239C74.0928 6.12577 74.0278 6.06044 73.9606 5.99641C73.9004 5.93281 73.8382 5.87039 73.7741 5.80917C73.7139 5.74562 73.6517 5.68324 73.5877 5.62206C73.5273 5.55827 73.465 5.49567 73.4008 5.43427C73.139 5.15746 72.8399 4.90294 72.503 4.67193C70.9647 3.61721 68.8262 3.08984 66.0875 3.08984H56.558ZM65.9435 21.9457H63.6461L63.1821 24.3623C63.958 24.2542 64.5831 23.9621 65.0745 23.4686C65.5043 23.0371 65.7978 22.5372 65.9435 21.9457ZM67.6756 11.7925H66.0538L65.6316 13.6193C65.8941 13.5445 66.1449 13.4373 66.3876 13.2981C66.8753 12.9967 67.2505 12.62 67.5131 12.1304C67.5733 12.0181 67.6277 11.9057 67.6756 11.7925Z"
          fill="url(#paint1_linear_12364_71449)"/>
    <path d="M62.1094 7.9248H68.3205L67.8427 13.2431H67.3649L62.1094 7.9248Z" fill="black" fill-opacity="0.4"/>
    <path d="M60.1992 18.5615H66.4103L65.9326 23.8798H65.4548L60.1992 18.5615Z" fill="black" fill-opacity="0.4"/>
    <g filter="url(#filter0_ii_12364_71449)">
        <path d="M50.6445 29.1979L56.423 3.08984H65.9111C68.6834 3.08984 70.848 3.612 72.405 4.65633C73.9621 5.70065 74.7216 7.22984 74.7216 9.132C74.7216 10.1017 74.4938 10.9596 74.076 11.7428C73.6583 12.526 73.0507 13.1974 72.2912 13.7568C71.5316 14.3163 70.6582 14.8012 69.7087 15.1369C70.848 15.659 71.7215 16.4423 72.2912 17.412C72.8988 18.3817 73.1646 19.5379 73.1646 20.806C73.1646 22.5217 72.7089 24.0136 71.7215 25.2817C70.7721 26.5126 69.5189 27.4822 67.9239 28.1536C66.3288 28.825 64.544 29.1606 62.6071 29.1606H50.6445V29.1979ZM58.6576 24.2001H62.2274C63.3667 24.2001 64.2401 23.9017 64.8858 23.2676C65.5313 22.6336 65.8731 21.8503 65.8731 20.8433C65.8731 19.9855 65.6073 19.3514 65.0376 18.9039C64.468 18.4563 63.6704 18.2325 62.5691 18.2325H59.9868L58.6576 24.2001ZM60.9742 13.6449H64.468C65.1136 13.6449 65.6832 13.4957 66.2149 13.1974C66.7086 12.899 67.0883 12.526 67.3542 12.0412C67.62 11.5563 67.7719 11.0715 67.7719 10.512C67.7719 9.69146 67.5061 9.0947 66.9364 8.68443C66.3668 8.27416 65.5313 8.08767 64.354 8.08767H62.2274L60.9742 13.6449Z"
              fill="white"/>
    </g>
    <mask id="mask0_12364_71449" style="mask-type:alpha" maskUnits="userSpaceOnUse" x="50" y="3" width="25" height="27">
        <path d="M50.6445 29.199L56.3779 3.36329L65.4556 3.36328C68.2063 3.36328 70.5997 3.72689 72.1445 4.7986C73.6894 5.8703 74.5334 6.65495 74.5334 8.60698C74.5334 9.60213 74.3073 10.4825 73.8929 11.2862C73.4784 12.09 72.8755 12.779 72.1219 13.3531C71.3683 13.9272 70.5017 14.4248 69.5597 14.7693C70.6901 15.3051 71.5567 16.1089 72.1219 17.1041C72.7248 18.0992 72.9886 19.2857 72.9886 20.5871C72.9886 22.3477 72.5364 23.8787 71.5567 25.1801C70.6147 26.4432 69.3713 27.4383 67.7888 28.1273C66.2062 28.8162 64.4353 29.1607 62.5136 29.1607H50.6445V29.199ZM58.5693 24.4146H62.1112C63.2416 24.4146 64.1082 24.1084 64.7488 23.4577C65.3893 22.807 66.0932 21.8124 66.0932 20.7789C66.0932 19.8986 65.4903 19.0944 64.9251 18.6351C64.3599 18.1758 63.5686 17.9461 62.4759 17.9461H59.9137L58.5693 24.4146ZM60.6779 13.6194L64.2469 13.6748C64.8874 13.6748 65.8837 13.7167 66.4112 13.4105C66.901 13.1043 67.5808 12.4728 67.8445 11.9752C68.1083 11.4776 67.8445 10.1571 67.8445 9.58298C67.8445 8.74093 67.3743 8.5687 66.8091 8.14768C66.2439 7.72665 65.415 8.14768 64.2469 8.14768H62.1112L60.6779 13.6194Z"
              fill="url(#paint2_linear_12364_71449)"/>
    </mask>
    <g mask="url(#mask0_12364_71449)">
        <path fill-rule="evenodd" clip-rule="evenodd"
              d="M54.753 42.2972L92.0302 28.515L92.127 28.7852L54.8498 42.5674L54.753 42.2972Z" fill="#0F45F0"
              fill-opacity="0.4"/>
        <path fill-rule="evenodd" clip-rule="evenodd"
              d="M54.3702 41.2229L91.6473 27.4407L91.7441 27.7109L54.467 41.4931L54.3702 41.2229Z" fill="#0F45F0"
              fill-opacity="0.4"/>
        <path fill-rule="evenodd" clip-rule="evenodd"
              d="M53.9834 40.1507L91.2606 26.3685L91.3574 26.6387L54.0802 40.4209L53.9834 40.1507Z" fill="#0F45F0"
              fill-opacity="0.4"/>
        <path fill-rule="evenodd" clip-rule="evenodd"
              d="M53.5928 39.056L90.87 25.2737L90.9668 25.5439L53.6896 39.3262L53.5928 39.056Z" fill="#0F45F0"
              fill-opacity="0.4"/>
        <path fill-rule="evenodd" clip-rule="evenodd"
              d="M53.208 37.9837L90.4852 24.2015L90.582 24.4717L53.3048 38.2539L53.208 37.9837Z" fill="#0F45F0"
              fill-opacity="0.4"/>
        <path fill-rule="evenodd" clip-rule="evenodd"
              d="M52.8233 36.9104L90.1005 23.1282L90.1973 23.3984L52.9201 37.1806L52.8233 36.9104Z" fill="#0F45F0"
              fill-opacity="0.4"/>
        <path fill-rule="evenodd" clip-rule="evenodd"
              d="M52.4327 35.8167L89.7098 22.0345L89.8066 22.3047L52.5295 36.0869L52.4327 35.8167Z" fill="#0F45F0"
              fill-opacity="0.4"/>
        <path fill-rule="evenodd" clip-rule="evenodd"
              d="M52.0459 34.7425L89.3231 20.9603L89.4199 21.2305L52.1427 35.0127L52.0459 34.7425Z" fill="#0F45F0"
              fill-opacity="0.4"/>
        <path fill-rule="evenodd" clip-rule="evenodd"
              d="M51.6631 33.6692L88.9403 19.887L89.0371 20.1572L51.7599 33.9394L51.6631 33.6692Z" fill="#0F45F0"
              fill-opacity="0.4"/>
        <path fill-rule="evenodd" clip-rule="evenodd"
              d="M51.2725 32.5765L88.5497 18.7943L88.6465 19.0645L51.3693 32.8467L51.2725 32.5765Z" fill="#0F45F0"
              fill-opacity="0.4"/>
        <path fill-rule="evenodd" clip-rule="evenodd"
              d="M50.8877 31.5032L88.1649 17.721L88.2617 17.9912L50.9845 31.7734L50.8877 31.5032Z" fill="#0F45F0"
              fill-opacity="0.4"/>
        <path fill-rule="evenodd" clip-rule="evenodd"
              d="M50.503 30.43L87.7802 16.6478L87.877 16.918L50.5998 30.7002L50.503 30.43Z" fill="#0F45F0"
              fill-opacity="0.4"/>
        <path fill-rule="evenodd" clip-rule="evenodd"
              d="M50.1123 29.3362L87.3895 15.554L87.4863 15.8242L50.2091 29.6064L50.1123 29.3362Z" fill="#0F45F0"
              fill-opacity="0.4"/>
        <path fill-rule="evenodd" clip-rule="evenodd"
              d="M49.7256 28.263L87.0028 14.4808L87.0996 14.751L49.8224 28.5332L49.7256 28.263Z" fill="#0F45F0"
              fill-opacity="0.4"/>
        <path fill-rule="evenodd" clip-rule="evenodd"
              d="M49.3428 27.1897L86.62 13.4075L86.7168 13.6777L49.4396 27.4599L49.3428 27.1897Z" fill="#0F45F0"
              fill-opacity="0.4"/>
        <path fill-rule="evenodd" clip-rule="evenodd"
              d="M48.9502 26.0979L86.2274 12.3157L86.3242 12.5859L49.047 26.3681L48.9502 26.0979Z" fill="#0F45F0"
              fill-opacity="0.4"/>
        <path fill-rule="evenodd" clip-rule="evenodd"
              d="M48.5655 25.0237L85.8427 11.2415L85.9395 11.5117L48.6623 25.2939L48.5655 25.0237Z" fill="#0F45F0"
              fill-opacity="0.4"/>
        <path fill-rule="evenodd" clip-rule="evenodd"
              d="M48.1807 23.9505L85.4579 10.1683L85.5547 10.4385L48.2775 24.2207L48.1807 23.9505Z" fill="#0F45F0"
              fill-opacity="0.4"/>
        <path fill-rule="evenodd" clip-rule="evenodd"
              d="M47.7901 22.8577L85.0673 9.0755L85.1641 9.3457L47.8869 23.1279L47.7901 22.8577Z" fill="#0F45F0"
              fill-opacity="0.4"/>
        <path fill-rule="evenodd" clip-rule="evenodd"
              d="M47.4053 21.7854L84.6825 8.00324L84.7793 8.27344L47.5021 22.0556L47.4053 21.7854Z" fill="#0F45F0"
              fill-opacity="0.4"/>
        <path fill-rule="evenodd" clip-rule="evenodd"
              d="M47.0205 20.7122L84.2977 6.92999L84.3945 7.2002L47.1173 20.9824L47.0205 20.7122Z" fill="#0F45F0"
              fill-opacity="0.4"/>
        <path fill-rule="evenodd" clip-rule="evenodd"
              d="M46.628 19.6175L83.9052 5.83527L84.002 6.10547L46.7248 19.8877L46.628 19.6175Z" fill="#0F45F0"
              fill-opacity="0.4"/>
        <path fill-rule="evenodd" clip-rule="evenodd"
              d="M46.2452 18.5442L83.5223 4.76202L83.6191 5.03223L46.342 18.8144L46.2452 18.5442Z" fill="#0F45F0"
              fill-opacity="0.4"/>
        <path fill-rule="evenodd" clip-rule="evenodd"
              d="M45.8584 17.4729L83.1356 3.69074L83.2324 3.96094L45.9552 17.7431L45.8584 17.4729Z" fill="#0F45F0"
              fill-opacity="0.4"/>
        <path fill-rule="evenodd" clip-rule="evenodd"
              d="M45.4678 16.3772L82.745 2.59503L82.8418 2.86523L45.5646 16.6474L45.4678 16.3772Z" fill="#0F45F0"
              fill-opacity="0.4"/>
        <path fill-rule="evenodd" clip-rule="evenodd"
              d="M45.085 15.305L82.3622 1.52277L82.459 1.79297L45.1818 15.5752L45.085 15.305Z" fill="#0F45F0"
              fill-opacity="0.4"/>
        <path fill-rule="evenodd" clip-rule="evenodd"
              d="M44.6983 14.2327L81.9755 0.450501L82.0723 0.720703L44.7951 14.5029L44.6983 14.2327Z" fill="#0F45F0"
              fill-opacity="0.4"/>
        <path fill-rule="evenodd" clip-rule="evenodd"
              d="M44.3077 13.138L81.5848 -0.644226L81.6816 -0.374023L44.4045 13.4082L44.3077 13.138Z" fill="#0F45F0"
              fill-opacity="0.4"/>
        <path fill-rule="evenodd" clip-rule="evenodd"
              d="M43.9229 12.0657L81.2001 -1.71649L81.2969 -1.44629L44.0197 12.3359L43.9229 12.0657Z" fill="#0F45F0"
              fill-opacity="0.4"/>
        <path fill-rule="evenodd" clip-rule="evenodd"
              d="M43.5381 10.9925L80.8153 -2.78973L80.9121 -2.51953L43.6349 11.2627L43.5381 10.9925Z" fill="#0F45F0"
              fill-opacity="0.4"/>
        <path fill-rule="evenodd" clip-rule="evenodd"
              d="M43.1455 9.8997L80.4227 -3.88251L80.5195 -3.6123L43.2423 10.1699L43.1455 9.8997Z" fill="#0F45F0"
              fill-opacity="0.4"/>
        <path fill-rule="evenodd" clip-rule="evenodd"
              d="M42.7647 8.82549L80.0419 -4.95672L80.1387 -4.68652L42.8615 9.09569L42.7647 8.82549Z" fill="#0F45F0"
              fill-opacity="0.4"/>
    </g>
    <path fill-rule="evenodd" clip-rule="evenodd"
          d="M50.6528 29.1606H50.6445V29.1979L50.6528 29.1606H62.6071C64.544 29.1606 66.3288 28.825 67.9239 28.1536C69.5189 27.4822 70.7721 26.5126 71.7215 25.2817C72.7089 24.0136 73.1646 22.5217 73.1646 20.806C73.1646 19.5379 72.8988 18.3817 72.2912 17.412C71.8214 16.6122 71.1449 15.9393 70.2831 15.4351C70.0999 15.3279 69.9084 15.2284 69.7087 15.1369C69.9138 15.0643 70.1154 14.9848 70.3131 14.8991C71.0303 14.5882 71.6957 14.1954 72.2912 13.7568C73.0507 13.1974 73.6583 12.526 74.076 11.7428C74.4938 10.9596 74.7216 10.1017 74.7216 9.132C74.7216 7.22984 73.9621 5.70065 72.405 4.65633C70.848 3.612 68.6834 3.08984 65.9111 3.08984H56.423L50.6528 29.1606ZM56.8056 3.57333H65.9111C68.6323 3.57333 70.6917 4.08718 72.1411 5.05933C73.556 6.00831 74.2439 7.3812 74.2439 9.132C74.2439 10.0202 74.0363 10.7993 73.6555 11.5132C73.2764 12.2241 72.7202 12.8429 72.01 13.3659C71.2844 13.9004 70.4522 14.3618 69.5511 14.6805L68.4242 15.0789L69.5116 15.5773C70.5688 16.0619 71.3646 16.7808 71.8805 17.659L71.884 17.665L71.8877 17.6708C72.4353 18.5449 72.6868 19.6052 72.6868 20.806C72.6868 22.4287 72.2583 23.8112 71.3462 24.9825L71.3449 24.9842C70.4488 26.146 69.2634 27.0661 67.7404 27.7072C66.2107 28.351 64.4893 28.6771 62.6071 28.6771H51.2494L56.8056 3.57333ZM58.0601 24.6835L59.6047 17.749H62.5691C63.7281 17.749 64.6456 17.9838 65.3306 18.522C66.0418 19.0806 66.3509 19.8713 66.3509 20.8433C66.3509 21.9789 65.9583 22.888 65.2185 23.6146C64.459 24.3605 63.4517 24.6835 62.2274 24.6835H58.0601ZM65.0376 18.9039C64.468 18.4563 63.6704 18.2325 62.5691 18.2325H59.9868L58.6576 24.2001H62.2274C63.3667 24.2001 64.2401 23.9017 64.8858 23.2676C65.5313 22.6336 65.8731 21.8503 65.8731 20.8433C65.8731 19.9855 65.6073 19.3514 65.0376 18.9039ZM60.3751 14.1284L61.8463 7.60419H64.354C65.565 7.60419 66.5222 7.79266 67.2135 8.29052L66.9364 8.68443C66.3668 8.27416 65.5313 8.08767 64.354 8.08767H62.2274L60.9742 13.6449H64.468C65.1136 13.6449 65.6832 13.4957 66.2149 13.1974C66.7086 12.899 67.0883 12.526 67.3542 12.0412C67.62 11.5563 67.7719 11.0715 67.7719 10.512C67.7719 9.69146 67.5061 9.0947 66.9364 8.68443L67.2135 8.29052C67.9343 8.80969 68.2497 9.56928 68.2497 10.512C68.2497 11.1697 68.0686 11.7347 67.772 12.2757C67.4595 12.8455 67.015 13.277 66.4599 13.6125L66.4533 13.6165L66.4466 13.6203C65.8418 13.9596 65.1921 14.1284 64.468 14.1284H60.3751Z"
          fill="url(#paint3_linear_12364_71449)"/>
    <path d="M50.6445 29.1973H64.9779L69.2779 34.9991H56.268L50.6445 29.1973Z" fill="url(#paint4_linear_12364_71449)"
          fill-opacity="0.4"/>
    <path fill-rule="evenodd" clip-rule="evenodd"
          d="M75.4902 29.1969L81.2236 3.57235L97.7995 3.08887H100.335L104.635 7.44021L103.625 14.6925H93.168L92.6902 16.1429L98.96 16.7193L100.812 18.5603L99.8569 23.8786H90.7791L90.6416 25.7739L96.5125 23.8786L100.812 28.23L99.8569 34.9987H80.7458L75.4902 29.1969Z"
          fill="#47D9D8"/>
    <path d="M86.9551 8.89062H99.2392L103.613 14.6924H92.6884L86.9551 8.89062Z" fill="black" fill-opacity="0.4"/>
    <path d="M84.5684 18.5615H94.6884L99.8572 23.8798H89.1663L84.5684 18.5615Z" fill="black" fill-opacity="0.4"/>
    <path fill-rule="evenodd" clip-rule="evenodd"
          d="M75.4902 29.1969L81.099 3.08887H81.4283H100.335L103.201 5.98976L102.12 12.7585H90.7791L90.3013 13.7255H96.0347L99.3791 17.1099L98.4236 22.4282H87.9125L87.7678 23.4301L96.5125 23.3951L99.3791 26.7795L98.4236 33.0648H78.9838L75.4902 29.1969Z"
          fill="url(#paint5_linear_12364_71449)"/>
    <path d="M86.9551 8.89062H99.2392L102.16 12.7585H90.7773L86.9551 8.89062Z" fill="black" fill-opacity="0.4"/>
    <path d="M84.5684 18.5615H94.686L98.4239 22.4294H87.9128L84.5684 18.5615Z" fill="black" fill-opacity="0.4"/>
    <g filter="url(#filter1_ii_12364_71449)">
        <path d="M75.4902 29.1969L81.0979 3.08887H100.232L99.2426 8.89066H86.8716L85.918 13.7255H96.0347L94.8898 18.6796H84.7732L83.9025 23.3951H96.2736L95.2839 29.1969H75.4902Z"
              fill="white"/>
    </g>
    <mask id="mask1_12364_71449" style="mask-type:alpha" maskUnits="userSpaceOnUse" x="75" y="3" width="26" height="27">
        <path d="M75.4902 29.1979L81.2236 3.08984L100.335 3.39801L99.3791 8.89163H86.9569L86.0013 13.7265H96.0347L94.8733 18.5613H84.568L83.7688 23.5633L96.0347 23.3961L95.0791 29.1979H75.4902Z"
              fill="url(#paint6_linear_12364_71449)"/>
    </mask>
    <g mask="url(#mask1_12364_71449)">
        <path fill-rule="evenodd" clip-rule="evenodd"
              d="M73.2661 41.5019L111.452 27.5333L111.551 27.8057L73.3647 41.7743L73.2661 41.5019Z" fill="#0F45F0"
              fill-opacity="0.4"/>
        <path fill-rule="evenodd" clip-rule="evenodd"
              d="M72.8793 40.4297L111.065 26.461L111.164 26.7334L72.978 40.7021L72.8793 40.4297Z" fill="#0F45F0"
              fill-opacity="0.4"/>
        <path fill-rule="evenodd" clip-rule="evenodd"
              d="M72.4887 39.3584L110.675 25.3897L110.773 25.6621L72.5873 39.6308L72.4887 39.3584Z" fill="#0F45F0"
              fill-opacity="0.4"/>
        <path fill-rule="evenodd" clip-rule="evenodd"
              d="M72.0942 38.2646L110.28 24.296L110.379 24.5684L72.1928 38.537L72.0942 38.2646Z" fill="#0F45F0"
              fill-opacity="0.4"/>
        <path fill-rule="evenodd" clip-rule="evenodd"
              d="M71.7055 37.1934L109.892 23.2247L109.99 23.4971L71.8041 37.4657L71.7055 37.1934Z" fill="#0F45F0"
              fill-opacity="0.4"/>
        <path fill-rule="evenodd" clip-rule="evenodd"
              d="M71.3188 36.1221L109.505 22.1534L109.604 22.4258L71.4174 36.3944L71.3188 36.1221Z" fill="#0F45F0"
              fill-opacity="0.4"/>
        <path fill-rule="evenodd" clip-rule="evenodd"
              d="M70.9223 35.0283L109.108 21.0597L109.207 21.332L71.0209 35.3007L70.9223 35.0283Z" fill="#0F45F0"
              fill-opacity="0.4"/>
        <path fill-rule="evenodd" clip-rule="evenodd"
              d="M70.5336 33.956L108.72 19.9874L108.818 20.2598L70.6323 34.2284L70.5336 33.956Z" fill="#0F45F0"
              fill-opacity="0.4"/>
        <path fill-rule="evenodd" clip-rule="evenodd"
              d="M70.1469 32.8848L108.333 18.9161L108.432 19.1885L70.2455 33.1571L70.1469 32.8848Z" fill="#0F45F0"
              fill-opacity="0.4"/>
        <path fill-rule="evenodd" clip-rule="evenodd"
              d="M69.7504 31.792L107.937 17.8233L108.035 18.0957L69.8491 32.0644L69.7504 31.792Z" fill="#0F45F0"
              fill-opacity="0.4"/>
        <path fill-rule="evenodd" clip-rule="evenodd"
              d="M69.3618 30.7207L107.548 16.752L107.646 17.0244L69.4604 30.9931L69.3618 30.7207Z" fill="#0F45F0"
              fill-opacity="0.4"/>
        <path fill-rule="evenodd" clip-rule="evenodd"
              d="M68.9731 29.6475L107.159 15.6788L107.258 15.9512L69.0717 29.9198L68.9731 29.6475Z" fill="#0F45F0"
              fill-opacity="0.4"/>
        <path fill-rule="evenodd" clip-rule="evenodd"
              d="M68.5786 28.5557L106.765 14.587L106.863 14.8594L68.6772 28.828L68.5786 28.5557Z" fill="#0F45F0"
              fill-opacity="0.4"/>
        <path fill-rule="evenodd" clip-rule="evenodd"
              d="M68.1899 27.4834L106.376 13.5147L106.475 13.7871L68.2885 27.7558L68.1899 27.4834Z" fill="#0F45F0"
              fill-opacity="0.4"/>
        <path fill-rule="evenodd" clip-rule="evenodd"
              d="M67.8012 26.4111L105.987 12.4425L106.086 12.7148L67.8998 26.6835L67.8012 26.4111Z" fill="#0F45F0"
              fill-opacity="0.4"/>
        <path fill-rule="evenodd" clip-rule="evenodd"
              d="M67.4067 25.3184L105.593 11.3497L105.691 11.6221L67.5053 25.5907L67.4067 25.3184Z" fill="#0F45F0"
              fill-opacity="0.4"/>
        <path fill-rule="evenodd" clip-rule="evenodd"
              d="M67.018 24.2451L105.204 10.2764L105.303 10.5488L67.1166 24.5175L67.018 24.2451Z" fill="#0F45F0"
              fill-opacity="0.4"/>
        <path fill-rule="evenodd" clip-rule="evenodd"
              d="M66.6313 23.1748L104.817 9.20613L104.916 9.47852L66.7299 23.4472L66.6313 23.1748Z" fill="#0F45F0"
              fill-opacity="0.4"/>
        <path fill-rule="evenodd" clip-rule="evenodd"
              d="M66.2328 22.081L104.419 8.11238L104.518 8.38477L66.3315 22.3534L66.2328 22.081Z" fill="#0F45F0"
              fill-opacity="0.4"/>
        <path fill-rule="evenodd" clip-rule="evenodd"
              d="M65.8461 21.0098L104.032 7.0411L104.131 7.31348L65.9448 21.2821L65.8461 21.0098Z" fill="#0F45F0"
              fill-opacity="0.4"/>
        <path fill-rule="evenodd" clip-rule="evenodd"
              d="M65.4575 19.9375L103.644 5.96883L103.742 6.24121L65.5561 20.2099L65.4575 19.9375Z" fill="#0F45F0"
              fill-opacity="0.4"/>
        <path fill-rule="evenodd" clip-rule="evenodd"
              d="M65.0629 18.8447L103.249 4.87606L103.348 5.14844L65.1616 19.1171L65.0629 18.8447Z" fill="#0F45F0"
              fill-opacity="0.4"/>
        <path fill-rule="evenodd" clip-rule="evenodd"
              d="M64.6723 17.7725L102.858 3.80379L102.957 4.07617L64.7709 18.0448L64.6723 17.7725Z" fill="#0F45F0"
              fill-opacity="0.4"/>
        <path fill-rule="evenodd" clip-rule="evenodd"
              d="M64.2856 16.7012L102.472 2.7325L102.57 3.00488L64.3842 16.9735L64.2856 16.7012Z" fill="#0F45F0"
              fill-opacity="0.4"/>
        <path fill-rule="evenodd" clip-rule="evenodd"
              d="M63.8891 15.6084L102.075 1.63973L102.174 1.91211L63.9877 15.8808L63.8891 15.6084Z" fill="#0F45F0"
              fill-opacity="0.4"/>
        <path fill-rule="evenodd" clip-rule="evenodd"
              d="M63.5024 14.5361L101.688 0.567463L101.787 0.839844L63.601 14.8085L63.5024 14.5361Z" fill="#0F45F0"
              fill-opacity="0.4"/>
        <path fill-rule="evenodd" clip-rule="evenodd"
              d="M63.1137 13.4639L101.3 -0.504803L101.398 -0.232422L63.2123 13.7362L63.1137 13.4639Z" fill="#0F45F0"
              fill-opacity="0.4"/>
        <path fill-rule="evenodd" clip-rule="evenodd"
              d="M62.7172 12.3721L100.903 -1.5966L101.002 -1.32422L62.8159 12.6444L62.7172 12.3721Z" fill="#0F45F0"
              fill-opacity="0.4"/>
        <path fill-rule="evenodd" clip-rule="evenodd"
              d="M62.3305 11.2998L100.517 -2.66887L100.615 -2.39648L62.4291 11.5722L62.3305 11.2998Z" fill="#0F45F0"
              fill-opacity="0.4"/>
        <path fill-rule="evenodd" clip-rule="evenodd"
              d="M61.9418 10.2275L100.128 -3.74113L100.227 -3.46875L62.0405 10.4999L61.9418 10.2275Z" fill="#0F45F0"
              fill-opacity="0.4"/>
        <path fill-rule="evenodd" clip-rule="evenodd"
              d="M61.5473 9.13573L99.7334 -4.83293L99.832 -4.56055L61.6459 9.40811L61.5473 9.13573Z" fill="#0F45F0"
              fill-opacity="0.4"/>
        <path fill-rule="evenodd" clip-rule="evenodd"
              d="M61.1586 8.0625L99.3447 -5.90617L99.4434 -5.63379L61.2573 8.33488L61.1586 8.0625Z" fill="#0F45F0"
              fill-opacity="0.4"/>
    </g>
    <path fill-rule="evenodd" clip-rule="evenodd"
          d="M86.8716 8.89066H99.2426L100.232 3.08887H81.0979L75.4902 29.1969H95.2839L96.2736 23.3951H83.9025L84.7732 18.6796H94.8898L96.0347 13.7255H85.918L86.8716 8.89066ZM95.4323 14.209H85.3355L86.4797 8.40718H98.8402L99.665 3.57235H81.483L76.083 28.7135H94.8815L95.7062 23.8786H83.3272L84.3765 18.1962H94.5109L95.4323 14.209Z"
          fill="url(#paint7_linear_12364_71449)"/>
    <path d="M75.4902 29.1973H95.5569L99.8569 34.9991H80.7458L75.4902 29.1973Z" fill="black" fill-opacity="0.4"/>
    <path fill-rule="evenodd" clip-rule="evenodd"
          d="M107.977 14.6944L105.111 29.1989L109.411 35.0007H117.055L120.877 14.6944H127.566L129 7.92565L124.222 3.09082H103.677L102.244 9.3761L106.066 14.6944H107.977Z"
          fill="url(#paint8_linear_12364_71449)"/>
    <path fill-rule="evenodd" clip-rule="evenodd"
          d="M108.563 12.7605L105.111 29.1989L107.978 33.0668H115.622L119.112 12.7605L125.655 12.7605L127.089 5.99172L124.222 3.09082H103.693L102.244 9.3761L104.633 12.7605L108.563 12.7605Z"
          fill="url(#paint9_linear_12364_71449)"/>
    <path d="M115.621 8.8916H122.851L127.566 14.6934H120.877L115.621 8.8916Z" fill="black" fill-opacity="0.4"/>
    <path d="M102.244 9.37508L109.185 8.8916L111.322 14.6934H106.066L102.244 9.37508Z" fill="black" fill-opacity="0.4"/>
    <path d="M105.111 29.1982H112.756L117.056 35H109.411L105.111 29.1982Z" fill="black" fill-opacity="0.4"/>
    <g filter="url(#filter2_ii_12364_71449)">
        <path d="M105.111 29.1979L108.933 9.37512H102.244L103.566 3.08984H124.222L123.266 9.37512H116.1L112.755 29.1979H105.111Z"
              fill="white"/>
    </g>
    <mask id="mask2_12364_71449" style="mask-type:alpha" maskUnits="userSpaceOnUse" x="102" y="3" width="22"
          height="27">
        <path d="M105.111 29.1988L109.28 9.376H102.244L103.678 3.57422L123.726 3.68718L122.66 9.97246H115.971L112.393 29.1988H105.111Z"
              fill="url(#paint10_linear_12364_71449)"/>
    </mask>
    <g mask="url(#mask2_12364_71449)">
        <path fill-rule="evenodd" clip-rule="evenodd"
              d="M107.884 38.7163L138.998 27.2567L139.096 27.5293L107.982 38.9889L107.884 38.7163Z" fill="#0F45F0"
              fill-opacity="0.4"/>
        <path fill-rule="evenodd" clip-rule="evenodd"
              d="M107.486 37.606L138.599 26.1463L138.697 26.4189L107.584 37.8786L107.486 37.606Z" fill="#0F45F0"
              fill-opacity="0.4"/>
        <path fill-rule="evenodd" clip-rule="evenodd"
              d="M107.085 36.4946L138.199 25.035L138.297 25.3076L107.183 36.7672L107.085 36.4946Z" fill="#0F45F0"
              fill-opacity="0.4"/>
        <path fill-rule="evenodd" clip-rule="evenodd"
              d="M106.679 35.3628L137.793 23.9032L137.891 24.1758L106.777 35.6354L106.679 35.3628Z" fill="#0F45F0"
              fill-opacity="0.4"/>
        <path fill-rule="evenodd" clip-rule="evenodd"
              d="M106.279 34.2534L137.392 22.7938L137.49 23.0664L106.377 34.526L106.279 34.2534Z" fill="#0F45F0"
              fill-opacity="0.4"/>
        <path fill-rule="evenodd" clip-rule="evenodd"
              d="M105.88 33.1421L136.994 21.6825L137.092 21.9551L105.978 33.4147L105.88 33.1421Z" fill="#0F45F0"
              fill-opacity="0.4"/>
        <path fill-rule="evenodd" clip-rule="evenodd"
              d="M105.474 32.0103L136.588 20.5506L136.686 20.8232L105.572 32.2829L105.474 32.0103Z" fill="#0F45F0"
              fill-opacity="0.4"/>
        <path fill-rule="evenodd" clip-rule="evenodd"
              d="M105.074 30.898L136.187 19.4383L136.285 19.7109L105.172 31.1705L105.074 30.898Z" fill="#0F45F0"
              fill-opacity="0.4"/>
        <path fill-rule="evenodd" clip-rule="evenodd"
              d="M104.675 29.7886L135.789 18.329L135.887 18.6016L104.773 30.0612L104.675 29.7886Z" fill="#0F45F0"
              fill-opacity="0.4"/>
        <path fill-rule="evenodd" clip-rule="evenodd"
              d="M104.267 28.6567L135.38 17.1971L135.479 17.4697L104.365 28.9293L104.267 28.6567Z" fill="#0F45F0"
              fill-opacity="0.4"/>
        <path fill-rule="evenodd" clip-rule="evenodd"
              d="M103.869 27.5454L134.982 16.0858L135.08 16.3584L103.967 27.818L103.869 27.5454Z" fill="#0F45F0"
              fill-opacity="0.4"/>
        <path fill-rule="evenodd" clip-rule="evenodd"
              d="M103.47 26.4341L134.584 14.9745L134.682 15.2471L103.568 26.7067L103.47 26.4341Z" fill="#0F45F0"
              fill-opacity="0.4"/>
        <path fill-rule="evenodd" clip-rule="evenodd"
              d="M103.06 25.3022L134.173 13.8426L134.271 14.1152L103.158 25.5748L103.06 25.3022Z" fill="#0F45F0"
              fill-opacity="0.4"/>
        <path fill-rule="evenodd" clip-rule="evenodd"
              d="M102.664 24.1919L133.777 12.7323L133.875 13.0049L102.762 24.4645L102.664 24.1919Z" fill="#0F45F0"
              fill-opacity="0.4"/>
        <path fill-rule="evenodd" clip-rule="evenodd"
              d="M102.263 23.0825L133.377 11.6229L133.475 11.8955L102.361 23.3551L102.263 23.0825Z" fill="#0F45F0"
              fill-opacity="0.4"/>
        <path fill-rule="evenodd" clip-rule="evenodd"
              d="M101.855 21.9497L132.968 10.4901L133.066 10.7627L101.953 22.2223L101.855 21.9497Z" fill="#0F45F0"
              fill-opacity="0.4"/>
        <path fill-rule="evenodd" clip-rule="evenodd"
              d="M101.456 20.8384L132.57 9.37877L132.668 9.65137L101.555 21.111L101.456 20.8384Z" fill="#0F45F0"
              fill-opacity="0.4"/>
        <path fill-rule="evenodd" clip-rule="evenodd"
              d="M101.056 19.728L132.17 8.26842L132.268 8.54102L101.154 20.0006L101.056 19.728Z" fill="#0F45F0"
              fill-opacity="0.4"/>
        <path fill-rule="evenodd" clip-rule="evenodd"
              d="M100.65 18.5972L131.763 7.13756L131.861 7.41016L100.748 18.8698L100.65 18.5972Z" fill="#0F45F0"
              fill-opacity="0.4"/>
        <path fill-rule="evenodd" clip-rule="evenodd"
              d="M100.249 17.4858L131.363 6.02623L131.461 6.29883L100.347 17.7584L100.249 17.4858Z" fill="#0F45F0"
              fill-opacity="0.4"/>
        <path fill-rule="evenodd" clip-rule="evenodd"
              d="M99.851 16.3745L130.964 4.9149L131.062 5.1875L99.949 16.6471L99.851 16.3745Z" fill="#0F45F0"
              fill-opacity="0.4"/>
        <path fill-rule="evenodd" clip-rule="evenodd"
              d="M99.4448 15.2427L130.558 3.78306L130.656 4.05566L99.5428 15.5153L99.4448 15.2427Z" fill="#0F45F0"
              fill-opacity="0.4"/>
        <path fill-rule="evenodd" clip-rule="evenodd"
              d="M99.0444 14.1313L130.158 2.67174L130.256 2.94434L99.1424 14.4039L99.0444 14.1313Z" fill="#0F45F0"
              fill-opacity="0.4"/>
        <path fill-rule="evenodd" clip-rule="evenodd"
              d="M98.6459 13.022L129.759 1.56236L129.857 1.83496L98.744 13.2946L98.6459 13.022Z" fill="#0F45F0"
              fill-opacity="0.4"/>
        <path fill-rule="evenodd" clip-rule="evenodd"
              d="M98.2377 11.8901L129.351 0.430526L129.449 0.703125L98.3358 12.1627L98.2377 11.8901Z" fill="#0F45F0"
              fill-opacity="0.4"/>
        <path fill-rule="evenodd" clip-rule="evenodd"
              d="M97.8393 10.7778L128.953 -0.681779L129.051 -0.40918L97.9373 11.0504L97.8393 10.7778Z" fill="#0F45F0"
              fill-opacity="0.4"/>
        <path fill-rule="evenodd" clip-rule="evenodd"
              d="M97.4389 9.66748L128.552 -1.79213L128.65 -1.51953L97.5369 9.94008L97.4389 9.66748Z" fill="#0F45F0"
              fill-opacity="0.4"/>
        <path fill-rule="evenodd" clip-rule="evenodd"
              d="M97.0326 8.53467L128.146 -2.92494L128.244 -2.65234L97.1307 8.80727L97.0326 8.53467Z" fill="#0F45F0"
              fill-opacity="0.4"/>
        <path fill-rule="evenodd" clip-rule="evenodd"
              d="M96.6323 7.42529L127.746 -4.03432L127.844 -3.76172L96.7303 7.69789L96.6323 7.42529Z" fill="#0F45F0"
              fill-opacity="0.4"/>
        <path fill-rule="evenodd" clip-rule="evenodd"
              d="M96.2319 6.31494L127.345 -5.14467L127.443 -4.87207L96.3299 6.58754L96.2319 6.31494Z" fill="#0F45F0"
              fill-opacity="0.4"/>
        <path fill-rule="evenodd" clip-rule="evenodd"
              d="M95.8256 5.18213L126.939 -6.27748L127.037 -6.00488L95.9237 5.45473L95.8256 5.18213Z" fill="#0F45F0"
              fill-opacity="0.4"/>
        <path fill-rule="evenodd" clip-rule="evenodd"
              d="M95.4252 4.07277L126.539 -7.38686L126.637 -7.11426L95.5233 4.34536L95.4252 4.07277Z" fill="#0F45F0"
              fill-opacity="0.4"/>
    </g>
    <path fill-rule="evenodd" clip-rule="evenodd"
          d="M105.111 29.1979H112.755L116.1 9.37512H123.266L124.222 3.08984H103.566L102.244 9.37512H108.933L105.111 29.1979ZM102.834 8.89164H109.513L105.691 28.7144H112.352L115.697 8.89164H122.856L123.665 3.57333H103.952L102.834 8.89164Z"
          fill="url(#paint11_linear_12364_71449)"/>
    <path fill-rule="evenodd" clip-rule="evenodd"
          d="M0 29.1948L7.66702 4.06253H15.4403C15.7891 4.05081 16.1467 4.05073 16.5109 4.06253H17.3947C17.7181 4.06253 17.9921 4.0597 18.23 4.05725C19.4841 4.04433 19.7354 4.04174 20.9351 4.51745C21.1549 4.60461 21.5086 4.80337 21.94 5.0718C23.3162 5.55029 24.6391 6.20326 25.8007 7.04284C32.4086 13.4113 28.4604 19.1243 24.4591 21.4845C23.8902 21.8815 23.296 22.2039 22.4556 22.4261L27.7111 34.9966H18.8928L13.8556 29.1948L13.3778 26.7774L11.4667 34.9966H4.3L0 29.1948ZM19.6857 13.3063C19.7161 13.3063 19.7464 13.3064 19.7764 13.3066C19.6171 13.8728 19.3148 14.3412 18.8595 14.7023C18.2288 15.2025 17.4515 15.4963 16.5273 15.5579L17.019 13.3063H19.6857Z"
          fill="#47D9D8"/>
    <path d="M14.334 12.7578H21.5007V16.1422H18.1562L14.334 12.7578Z" fill="#01A2A1"/>
    <path fill-rule="evenodd" clip-rule="evenodd"
          d="M5.33205 3.0871L0 29.1951L2.86667 33.063L10.0333 33.063L11.9444 23.8769L13.8556 29.1951L17.2 33.063L22.9333 33.063L25.8 33.063L20.0667 20.9759C21.4813 20.5993 22.7291 20.3263 23.8087 19.4975C24.8882 18.6688 25.7444 17.6895 26.3399 16.5217C26.9355 15.354 27.2333 14.0732 27.2333 12.6795C27.2333 11.1727 26.861 9.89201 26.1166 8.79961C25.8889 8.49234 25.6358 8.20104 25.3566 7.92853C25.2959 7.86478 25.2339 7.80197 25.1706 7.74013C25.1088 7.67529 25.0458 7.61143 24.9813 7.54855C24.9202 7.48458 24.8579 7.42154 24.7943 7.35948C24.7359 7.29823 24.6763 7.23786 24.6154 7.17836C24.5526 7.11237 24.4885 7.04738 24.4229 6.98344C24.3631 6.92079 24.3022 6.85905 24.2399 6.79824C24.1781 6.73343 24.1151 6.66959 24.0506 6.60676C23.9907 6.54386 23.9294 6.48186 23.8668 6.42082C23.8057 6.35652 23.7431 6.29318 23.6791 6.23082C23.6179 6.16661 23.5554 6.10335 23.4915 6.04108C23.4331 5.97983 23.3735 5.91943 23.3125 5.85992C23.2491 5.79314 23.3789 5.92462 23.3125 5.85992C23.2523 5.79682 23.3754 5.92116 23.3125 5.85992C23.2541 5.79866 23.3734 5.91942 23.3125 5.85992C23.2533 5.79787 23.3742 5.92017 23.3125 5.85992C23.2523 5.79682 23.3754 5.92116 23.3125 5.85992C22.4556 5.02101 20.2067 4.00817 19.1111 3.57056C17.6966 3.00553 7.34226 3.0871 5.33205 3.0871ZM17.2 12.7568C17.094 12.7532 17.308 12.7568 17.2 12.7568H14.3333L13.7644 14.576H13.9219C15.0014 14.576 15.8948 14.2747 16.602 13.7097C17.0632 13.3412 17.045 13.339 17.2 12.7568Z"
          fill="url(#paint12_linear_12364_71449)"/>
    <path d="M20.0663 20.9771L15.7663 18.0762C20.0663 14.6918 20.5441 11.8313 20.0663 8.44695C19.6841 5.73944 14.4922 3.73286 12.4219 3.08823C15.8619 2.70144 20.5441 3.57171 23.8885 5.98913C31.9152 13.7249 24.3663 20.9771 20.0663 20.9771Z"
          fill="url(#paint13_linear_12364_71449)"/>
    <path d="M10.0332 7.92188H17.6776V12.7567H14.3332L10.0332 7.92188Z" fill="#020C66"/>
    <g filter="url(#filter3_ii_12364_71449)">
        <path d="M0 29.196L5.33266 3.08789H14.6648C16.6105 3.08789 18.268 3.38627 19.6371 3.94573C21.0064 4.50519 22.0513 5.36302 22.808 6.40735C23.5285 7.48897 23.8889 8.75706 23.8889 10.249C23.8889 11.629 23.6006 12.8971 23.0241 14.0533C22.4476 15.2095 21.6189 16.1793 20.574 16.9997C19.5291 17.8203 18.3761 18.3798 17.0069 18.7527L21.9778 29.196H13.8556L10.341 19.9089H8.53947L7.16667 29.196H0ZM9.55556 14.4636H13.4758C14.5207 14.4636 15.3855 14.1652 16.0701 13.6057C16.7546 13.0463 17.0789 12.2257 17.0789 11.1814C17.0789 10.249 16.7546 9.61491 16.1421 9.24193C15.4936 8.86896 14.6288 8.68247 13.4398 8.68247H10.8175L9.55556 14.4636Z"
              fill="url(#paint14_linear_12364_71449)"/>
    </g>
    <mask id="mask3_12364_71449" style="mask-type:alpha" maskUnits="userSpaceOnUse" x="0" y="3" width="24" height="27">
        <path d="M0 29.1969L5.546 3.08887H15.2514C17.275 3.08887 18.6427 3.50418 20.0667 4.05583C21.4906 4.60748 21.9778 5.33225 22.7647 6.362C23.5142 7.42853 23.8889 8.67893 23.8889 10.15C23.8889 11.5107 23.5891 12.7612 22.9895 13.9012C22.39 15.0413 22.1089 15.8173 21.0222 16.6264C19.9355 17.4355 18.1462 18.1925 16.7222 18.5603L21.9778 29.1969H13.8556L10.3304 19.8726H8.45218L6.93245 29.1969H0ZM9.55556 14.6925H13.3778C14.4645 14.6925 15.2784 14.4529 15.9904 13.9012C16.7024 13.3496 17.2 12.3378 17.2 11.3081C17.2 10.3887 17.4249 9.5248 16.7878 9.15703C16.1133 8.78927 15.214 8.60538 13.9774 8.60538H10.8101L9.55556 14.6925Z"
              fill="url(#paint15_linear_12364_71449)" fill-opacity="0.5"/>
    </mask>
    <g mask="url(#mask3_12364_71449)">
        <path fill-rule="evenodd" clip-rule="evenodd"
              d="M-1.68387 40.696L36.94 26.634L37.0391 26.9062L-1.58483 40.9682L-1.68387 40.696Z" fill="white"/>
        <path fill-rule="evenodd" clip-rule="evenodd"
              d="M-2.07254 39.6276L36.5514 25.5657L36.6504 25.8379L-1.97351 39.8998L-2.07254 39.6276Z" fill="white"/>
        <path fill-rule="evenodd" clip-rule="evenodd"
              d="M-2.46317 38.5583L36.1607 24.4963L36.2598 24.7686L-2.36413 38.8305L-2.46317 38.5583Z" fill="white"/>
        <path fill-rule="evenodd" clip-rule="evenodd"
              d="M-2.85965 37.4684L35.7642 23.4065L35.8633 23.6787L-2.76062 37.7407L-2.85965 37.4684Z" fill="white"/>
        <path fill-rule="evenodd" clip-rule="evenodd"
              d="M-3.24637 36.3981L35.3775 22.3362L35.4766 22.6084L-3.14733 36.6704L-3.24637 36.3981Z" fill="white"/>
        <path fill-rule="evenodd" clip-rule="evenodd"
              d="M-3.63504 35.3288L34.9889 21.2668L35.0879 21.5391L-3.53601 35.601L-3.63504 35.3288Z" fill="white"/>
        <path fill-rule="evenodd" clip-rule="evenodd"
              d="M-4.03153 34.2399L34.5924 20.178L34.6914 20.4502L-3.93249 34.5122L-4.03153 34.2399Z" fill="white"/>
        <path fill-rule="evenodd" clip-rule="evenodd"
              d="M-4.42215 33.1706L34.2017 19.1086L34.3008 19.3809L-4.32312 33.4428L-4.42215 33.1706Z" fill="white"/>
        <path fill-rule="evenodd" clip-rule="evenodd"
              d="M-4.81083 32.1013L33.8131 18.0393L33.9121 18.3115L-4.71179 32.3735L-4.81083 32.1013Z" fill="white"/>
        <path fill-rule="evenodd" clip-rule="evenodd"
              d="M-5.20731 31.0114L33.4166 16.9495L33.5156 17.2217L-5.10827 31.2836L-5.20731 31.0114Z" fill="white"/>
        <path fill-rule="evenodd" clip-rule="evenodd"
              d="M-5.59598 29.943L33.0279 15.8811L33.127 16.1533L-5.49694 30.2153L-5.59598 29.943Z" fill="white"/>
        <path fill-rule="evenodd" clip-rule="evenodd"
              d="M-5.98661 28.8737L32.6373 14.8118L32.7363 15.084L-5.88757 29.1459L-5.98661 28.8737Z" fill="white"/>
        <path fill-rule="evenodd" clip-rule="evenodd"
              d="M-6.38309 27.7839L32.2408 13.7219L32.3398 13.9941L-6.28405 28.0561L-6.38309 27.7839Z" fill="white"/>
        <path fill-rule="evenodd" clip-rule="evenodd"
              d="M-6.76981 26.7136L31.8541 12.6516L31.9531 12.9238L-6.67077 26.9858L-6.76981 26.7136Z" fill="white"/>
        <path fill-rule="evenodd" clip-rule="evenodd"
              d="M-7.15848 25.6442L31.4654 11.5823L31.5645 11.8545L-7.05944 25.9164L-7.15848 25.6442Z" fill="white"/>
        <path fill-rule="evenodd" clip-rule="evenodd"
              d="M-7.55497 24.5554L31.0689 10.4934L31.168 10.7656L-7.45593 24.8276L-7.55497 24.5554Z" fill="white"/>
        <path fill-rule="evenodd" clip-rule="evenodd"
              d="M-7.94559 23.485L30.6783 9.42309L30.7773 9.69531L-7.84655 23.7573L-7.94559 23.485Z" fill="white"/>
        <path fill-rule="evenodd" clip-rule="evenodd"
              d="M-8.33426 22.4177L30.2896 8.3557L30.3887 8.62793L-8.23522 22.6899L-8.33426 22.4177Z" fill="white"/>
        <path fill-rule="evenodd" clip-rule="evenodd"
              d="M-8.73075 21.3268L29.8931 7.26488L29.9922 7.53711L-8.63171 21.5991L-8.73075 21.3268Z" fill="white"/>
        <path fill-rule="evenodd" clip-rule="evenodd"
              d="M-9.11942 20.2585L29.5045 6.19652L29.6035 6.46875L-9.02038 20.5307L-9.11942 20.2585Z" fill="white"/>
        <path fill-rule="evenodd" clip-rule="evenodd"
              d="M-9.51004 19.1882L29.1139 5.12621L29.2129 5.39844L-9.41101 19.4604L-9.51004 19.1882Z" fill="white"/>
        <path fill-rule="evenodd" clip-rule="evenodd"
              d="M-9.90458 18.0993L28.7193 4.03734L28.8184 4.30957L-9.80554 18.3715L-9.90458 18.0993Z" fill="white"/>
        <path fill-rule="evenodd" clip-rule="evenodd"
              d="M-10.2932 17.029L28.3306 2.96703L28.4297 3.23926L-10.1942 17.3012L-10.2932 17.029Z" fill="white"/>
        <path fill-rule="evenodd" clip-rule="evenodd"
              d="M-10.6819 15.9596L27.942 1.89769L28.041 2.16992L-10.5829 16.2319L-10.6819 15.9596Z" fill="white"/>
        <path fill-rule="evenodd" clip-rule="evenodd"
              d="M-11.0804 14.8708L27.5435 0.808827L27.6426 1.08105L-10.9813 15.143L-11.0804 14.8708Z" fill="white"/>
        <path fill-rule="evenodd" clip-rule="evenodd"
              d="M-11.469 13.8014L27.1549 -0.260509L27.2539 0.0117188L-11.37 14.0737L-11.469 13.8014Z" fill="white"/>
        <path fill-rule="evenodd" clip-rule="evenodd"
              d="M-11.8577 12.7321L26.7662 -1.32984L26.8652 -1.05762L-11.7587 13.0043L-11.8577 12.7321Z" fill="white"/>
        <path fill-rule="evenodd" clip-rule="evenodd"
              d="M-12.2542 11.6413L26.3697 -2.42066L26.4688 -2.14844L-12.1551 11.9135L-12.2542 11.6413Z" fill="white"/>
        <path fill-rule="evenodd" clip-rule="evenodd"
              d="M-12.6429 10.5729L25.981 -3.48902L26.0801 -3.2168L-12.5438 10.8452L-12.6429 10.5729Z" fill="white"/>
        <path fill-rule="evenodd" clip-rule="evenodd"
              d="M-13.0335 9.50359L25.5904 -4.55836L25.6895 -4.28613L-12.9344 9.77582L-13.0335 9.50359Z" fill="white"/>
        <path fill-rule="evenodd" clip-rule="evenodd"
              d="M-13.428 8.41473L25.1959 -5.64723L25.2949 -5.375L-13.329 8.68696L-13.428 8.41473Z" fill="white"/>
        <path fill-rule="evenodd" clip-rule="evenodd"
              d="M-13.8167 7.34442L24.8072 -6.71754L24.9062 -6.44531L-13.7176 7.61665L-13.8167 7.34442Z" fill="white"/>
    </g>
    <path d="M11.4665 19.5254H10.0332L10.511 20.0089L13.7251 28.2281H14.811L11.4665 19.5254Z" fill="#004520"
          fill-opacity="0.2"/>
    <path fill-rule="evenodd" clip-rule="evenodd"
          d="M20.574 16.9997C21.6189 16.1793 22.4476 15.2095 23.0241 14.0533C23.6006 12.8971 23.8889 11.629 23.8889 10.249C23.8889 8.75706 23.5285 7.48897 22.808 6.40735C22.0513 5.36303 21.0064 4.50519 19.6371 3.94573C18.268 3.38627 16.6105 3.08789 14.6648 3.08789H5.33266L0 29.196H7.16667L8.53947 19.9089H10.341L12.0983 24.5524L13.8556 29.196H21.9778L17.0069 18.7527C17.1648 18.7097 17.3198 18.6642 17.4722 18.6161C18.6406 18.2472 19.6496 17.7256 20.574 16.9997ZM21.2173 28.7125L16.3265 18.4374L16.8827 18.2859C18.1975 17.9277 19.2915 17.3948 20.281 16.6178C21.2772 15.8355 22.057 14.9197 22.5976 13.8355C23.1382 12.7512 23.4111 11.5584 23.4111 10.249C23.4111 8.84423 23.0743 7.67556 22.4171 6.68553C21.7132 5.71702 20.7415 4.91837 19.4583 4.39404C18.1581 3.86275 16.5637 3.57137 14.6648 3.57137H5.72178L0.58663 28.7125H6.75504L8.12784 19.4254H10.6697L14.1842 28.7125H21.2173ZM8.96073 14.947L10.4337 8.19899H13.4398C14.6719 8.19899 15.6296 8.39111 16.3782 8.82159L16.3885 8.82754C17.177 9.30765 17.5567 10.1214 17.5567 11.1814C17.5567 12.3329 17.194 13.3087 16.3702 13.9818C15.5901 14.6194 14.6156 14.947 13.4758 14.947H8.96073ZM16.0701 13.6057C16.7546 13.0463 17.0789 12.2257 17.0789 11.1814C17.0789 10.249 16.7546 9.61491 16.1421 9.24193C15.4936 8.86896 14.6288 8.68247 13.4398 8.68247H10.8175L9.55556 14.4636H13.4758C14.5207 14.4636 15.3855 14.1652 16.0701 13.6057Z"
          fill="url(#paint16_linear_12364_71449)"/>
    <path d="M0 29.1963H7.16667L11.4667 34.9981H4.3L0 29.1963Z" fill="black" fill-opacity="0.4"/>
    <path d="M13.8555 29.1963H21.9777L27.711 34.9981H18.8646L13.8555 29.1963Z" fill="black" fill-opacity="0.4"/>
    <path fill-rule="evenodd" clip-rule="evenodd"
          d="M31.5322 14.6944L28.6655 29.1989L32.9655 35.0007H40.6099L44.4322 14.6944H51.121L52.5544 7.92565L47.7766 3.09082H27.2322L25.7988 9.3761L29.6211 14.6944H31.5322Z"
          fill="url(#paint17_linear_12364_71449)"/>
    <path fill-rule="evenodd" clip-rule="evenodd"
          d="M32.1176 12.7605L28.6657 29.1989L31.5324 33.0668H39.1768L42.6669 12.7605L49.2102 12.7605L50.6435 5.99172L47.7768 3.09082H27.2475L25.7988 9.3761L28.1877 12.7605L32.1176 12.7605Z"
          fill="url(#paint18_linear_12364_71449)"/>
    <path d="M39.1777 8.8916H46.4079L51.1222 14.6934H44.4333L39.1777 8.8916Z" fill="black" fill-opacity="0.4"/>
    <path d="M25.7988 9.37508L32.7397 8.8916L34.8766 14.6934H29.6211L25.7988 9.37508Z" fill="black" fill-opacity="0.4"/>
    <path d="M28.666 29.1982H36.3105L40.6105 35H32.966L28.666 29.1982Z" fill="black" fill-opacity="0.4"/>
    <g filter="url(#filter4_ii_12364_71449)">
        <path d="M28.6655 29.1979L32.4877 9.37512H25.7988L27.1202 3.08984H47.7766L46.8211 9.37512H39.6544L36.3099 29.1979H28.6655Z"
              fill="url(#paint19_linear_12364_71449)"/>
    </g>
    <mask id="mask4_12364_71449" style="mask-type:alpha" maskUnits="userSpaceOnUse" x="26" y="3" width="22" height="27">
        <path d="M28.9936 29.1989L32.8523 9.3761H26.123L27.4391 3.09082H47.2779L46.3165 9.3761H39.6743L36.3097 29.1989H28.9936Z"
              fill="url(#paint20_linear_12364_71449)" fill-opacity="0.7"/>
    </mask>
    <g mask="url(#mask4_12364_71449)">
        <path fill-rule="evenodd" clip-rule="evenodd"
              d="M30.2271 41.0943L62.8768 28.7459L62.9727 29.0195L30.3229 41.3679L30.2271 41.0943Z" fill="white"/>
        <path fill-rule="evenodd" clip-rule="evenodd"
              d="M29.8404 39.9995L62.4901 27.6512L62.5859 27.9248L29.9362 40.2731L29.8404 39.9995Z" fill="white"/>
        <path fill-rule="evenodd" clip-rule="evenodd"
              d="M29.4595 38.9029L62.1093 26.5545L62.2051 26.8281L29.5554 39.1765L29.4595 38.9029Z" fill="white"/>
        <path fill-rule="evenodd" clip-rule="evenodd"
              d="M29.067 37.7857L61.7167 25.4373L61.8125 25.7109L29.1628 38.0593L29.067 37.7857Z" fill="white"/>
        <path fill-rule="evenodd" clip-rule="evenodd"
              d="M28.6822 36.6909L61.3319 24.3426L61.4277 24.6162L28.778 36.9645L28.6822 36.6909Z" fill="white"/>
        <path fill-rule="evenodd" clip-rule="evenodd"
              d="M28.2994 35.5952L60.9491 23.2469L61.0449 23.5205L28.3952 35.8688L28.2994 35.5952Z" fill="white"/>
        <path fill-rule="evenodd" clip-rule="evenodd"
              d="M27.9107 34.478L60.5604 22.1297L60.6562 22.4033L28.0065 34.7517L27.9107 34.478Z" fill="white"/>
        <path fill-rule="evenodd" clip-rule="evenodd"
              d="M27.524 33.3843L60.1737 21.036L60.2695 21.3096L27.6198 33.6579L27.524 33.3843Z" fill="white"/>
        <path fill-rule="evenodd" clip-rule="evenodd"
              d="M27.1412 32.2896L59.7909 19.9412L59.8867 20.2148L27.237 32.5632L27.1412 32.2896Z" fill="white"/>
        <path fill-rule="evenodd" clip-rule="evenodd"
              d="M26.7545 31.1734L59.4042 18.825L59.5 19.0986L26.8503 31.447L26.7545 31.1734Z" fill="white"/>
        <path fill-rule="evenodd" clip-rule="evenodd"
              d="M26.3677 30.0777L59.0175 17.7293L59.1133 18.0029L26.4636 30.3513L26.3677 30.0777Z" fill="white"/>
        <path fill-rule="evenodd" clip-rule="evenodd"
              d="M25.983 28.98L58.6327 16.6317L58.7285 16.9053L26.0788 29.2536L25.983 28.98Z" fill="white"/>
        <path fill-rule="evenodd" clip-rule="evenodd"
              d="M25.5924 27.8638L58.2421 15.5155L58.3379 15.7891L25.6882 28.1374L25.5924 27.8638Z" fill="white"/>
        <path fill-rule="evenodd" clip-rule="evenodd"
              d="M25.2076 26.7671L57.8573 14.4188L57.9531 14.6924L25.3034 27.0407L25.2076 26.7671Z" fill="white"/>
        <path fill-rule="evenodd" clip-rule="evenodd"
              d="M24.8248 25.6724L57.4745 13.324L57.5703 13.5977L24.9206 25.946L24.8248 25.6724Z" fill="white"/>
        <path fill-rule="evenodd" clip-rule="evenodd"
              d="M24.4361 24.5562L57.0858 12.2078L57.1816 12.4814L24.5319 24.8298L24.4361 24.5562Z" fill="white"/>
        <path fill-rule="evenodd" clip-rule="evenodd"
              d="M24.0494 23.4614L56.6991 11.1131L56.7949 11.3867L24.1452 23.7351L24.0494 23.4614Z" fill="white"/>
        <path fill-rule="evenodd" clip-rule="evenodd"
              d="M23.6666 22.3667L56.3163 10.0184L56.4121 10.292L23.7624 22.6403L23.6666 22.3667Z" fill="white"/>
        <path fill-rule="evenodd" clip-rule="evenodd"
              d="M23.2759 21.2495L55.9257 8.9012L56.0215 9.1748L23.3718 21.5231L23.2759 21.2495Z" fill="white"/>
        <path fill-rule="evenodd" clip-rule="evenodd"
              d="M22.8951 20.1538L55.5448 7.80549L55.6406 8.0791L22.9909 20.4274L22.8951 20.1538Z" fill="white"/>
        <path fill-rule="evenodd" clip-rule="evenodd"
              d="M22.5064 19.0591L55.1561 6.71077L55.252 6.98438L22.6022 19.3327L22.5064 19.0591Z" fill="white"/>
        <path fill-rule="evenodd" clip-rule="evenodd"
              d="M22.1177 17.9419L54.7675 5.59358L54.8633 5.86719L22.2136 18.2155L22.1177 17.9419Z" fill="white"/>
        <path fill-rule="evenodd" clip-rule="evenodd"
              d="M21.731 16.8452L54.3807 4.4969L54.4766 4.77051L21.8269 17.1188L21.731 16.8452Z" fill="white"/>
        <path fill-rule="evenodd" clip-rule="evenodd"
              d="M21.3502 15.7515L53.9999 3.40315L54.0957 3.67676L21.446 16.0251L21.3502 15.7515Z" fill="white"/>
        <path fill-rule="evenodd" clip-rule="evenodd"
              d="M20.9595 14.6343L53.6093 2.28596L53.7051 2.55957L21.0554 14.9079L20.9595 14.6343Z" fill="white"/>
        <path fill-rule="evenodd" clip-rule="evenodd"
              d="M20.5767 13.5396L53.2264 1.19123L53.3223 1.46484L20.6726 13.8132L20.5767 13.5396Z" fill="white"/>
        <path fill-rule="evenodd" clip-rule="evenodd"
              d="M20.1939 12.4439L52.8436 0.0955317L52.9395 0.369141L20.2897 12.7175L20.1939 12.4439Z" fill="white"/>
        <path fill-rule="evenodd" clip-rule="evenodd"
              d="M19.8013 11.3277L52.4511 -1.02068L52.5469 -0.74707L19.8972 11.6013L19.8013 11.3277Z" fill="white"/>
        <path fill-rule="evenodd" clip-rule="evenodd"
              d="M19.4166 10.2329L52.0663 -2.11541L52.1621 -1.8418L19.5124 10.5065L19.4166 10.2329Z" fill="white"/>
        <path fill-rule="evenodd" clip-rule="evenodd"
              d="M19.0338 9.13723L51.6835 -3.21111L51.7793 -2.9375L19.1296 9.41084L19.0338 9.13723Z" fill="white"/>
        <path fill-rule="evenodd" clip-rule="evenodd"
              d="M18.6431 8.02004L51.2928 -4.3283L51.3887 -4.05469L18.739 8.29365L18.6431 8.02004Z" fill="white"/>
        <path fill-rule="evenodd" clip-rule="evenodd"
              d="M18.2584 6.92338L50.9081 -5.42497L51.0039 -5.15137L18.3542 7.19698L18.2584 6.92338Z" fill="white"/>
    </g>
    <path fill-rule="evenodd" clip-rule="evenodd"
          d="M28.6655 29.1979H36.3099L39.6544 9.37512H46.821L47.7766 3.08984H27.1202L25.7988 9.37512H32.4877L28.6655 29.1979ZM26.3889 8.89164H33.0677L29.2455 28.7144H35.9068L39.2513 8.89164H46.4112L47.2197 3.57333H27.507L26.3889 8.89164Z"
          fill="url(#paint21_linear_12364_71449)"/>
    <defs>
        <filter id="filter0_ii_12364_71449" x="50.6445" y="3.08984" width="25.0771" height="27.1084"
                filterUnits="userSpaceOnUse" color-interpolation-filters="sRGB">
            <feFlood flood-opacity="0" result="BackgroundImageFix"/>
            <feBlend mode="normal" in="SourceGraphic" in2="BackgroundImageFix" result="shape"/>
            <feColorMatrix in="SourceAlpha" type="matrix" values="0 0 0 0 0 0 0 0 0 0 0 0 0 0 0 0 0 0 127 0"
                           result="hardAlpha"/>
            <feOffset dx="1" dy="1"/>
            <feGaussianBlur stdDeviation="0.5"/>
            <feComposite in2="hardAlpha" operator="arithmetic" k2="-1" k3="1"/>
            <feColorMatrix type="matrix" values="0 0 0 0 0.0901961 0 0 0 0 0.254902 0 0 0 0 1 0 0 0 0.4 0"/>
            <feBlend mode="normal" in2="shape" result="effect1_innerShadow_12364_71449"/>
            <feColorMatrix in="SourceAlpha" type="matrix" values="0 0 0 0 0 0 0 0 0 0 0 0 0 0 0 0 0 0 127 0"
                           result="hardAlpha"/>
            <feOffset dx="-1" dy="-1"/>
            <feComposite in2="hardAlpha" operator="arithmetic" k2="-1" k3="1"/>
            <feColorMatrix type="matrix" values="0 0 0 0 0.0588235 0 0 0 0 0.270588 0 0 0 0 0.941176 0 0 0 0.14 0"/>
            <feBlend mode="normal" in2="effect1_innerShadow_12364_71449" result="effect2_innerShadow_12364_71449"/>
        </filter>
        <filter id="filter1_ii_12364_71449" x="75.4902" y="3.08887" width="25.7422" height="27.1084"
                filterUnits="userSpaceOnUse" color-interpolation-filters="sRGB">
            <feFlood flood-opacity="0" result="BackgroundImageFix"/>
            <feBlend mode="normal" in="SourceGraphic" in2="BackgroundImageFix" result="shape"/>
            <feColorMatrix in="SourceAlpha" type="matrix" values="0 0 0 0 0 0 0 0 0 0 0 0 0 0 0 0 0 0 127 0"
                           result="hardAlpha"/>
            <feOffset dx="1" dy="1"/>
            <feGaussianBlur stdDeviation="0.5"/>
            <feComposite in2="hardAlpha" operator="arithmetic" k2="-1" k3="1"/>
            <feColorMatrix type="matrix" values="0 0 0 0 0.0901961 0 0 0 0 0.254902 0 0 0 0 1 0 0 0 0.4 0"/>
            <feBlend mode="normal" in2="shape" result="effect1_innerShadow_12364_71449"/>
            <feColorMatrix in="SourceAlpha" type="matrix" values="0 0 0 0 0 0 0 0 0 0 0 0 0 0 0 0 0 0 127 0"
                           result="hardAlpha"/>
            <feOffset dx="-1" dy="-1"/>
            <feComposite in2="hardAlpha" operator="arithmetic" k2="-1" k3="1"/>
            <feColorMatrix type="matrix" values="0 0 0 0 0.0588235 0 0 0 0 0.270588 0 0 0 0 0.941176 0 0 0 0.14 0"/>
            <feBlend mode="normal" in2="effect1_innerShadow_12364_71449" result="effect2_innerShadow_12364_71449"/>
        </filter>
        <filter id="filter2_ii_12364_71449" x="102.244" y="3.08984" width="22.9775" height="27.1084"
                filterUnits="userSpaceOnUse" color-interpolation-filters="sRGB">
            <feFlood flood-opacity="0" result="BackgroundImageFix"/>
            <feBlend mode="normal" in="SourceGraphic" in2="BackgroundImageFix" result="shape"/>
            <feColorMatrix in="SourceAlpha" type="matrix" values="0 0 0 0 0 0 0 0 0 0 0 0 0 0 0 0 0 0 127 0"
                           result="hardAlpha"/>
            <feOffset dx="1" dy="1"/>
            <feGaussianBlur stdDeviation="0.5"/>
            <feComposite in2="hardAlpha" operator="arithmetic" k2="-1" k3="1"/>
            <feColorMatrix type="matrix" values="0 0 0 0 0.0901961 0 0 0 0 0.254902 0 0 0 0 1 0 0 0 0.4 0"/>
            <feBlend mode="normal" in2="shape" result="effect1_innerShadow_12364_71449"/>
            <feColorMatrix in="SourceAlpha" type="matrix" values="0 0 0 0 0 0 0 0 0 0 0 0 0 0 0 0 0 0 127 0"
                           result="hardAlpha"/>
            <feOffset dx="-1" dy="-1"/>
            <feComposite in2="hardAlpha" operator="arithmetic" k2="-1" k3="1"/>
            <feColorMatrix type="matrix" values="0 0 0 0 0.0588235 0 0 0 0 0.270588 0 0 0 0 0.941176 0 0 0 0.14 0"/>
            <feBlend mode="normal" in2="effect1_innerShadow_12364_71449" result="effect2_innerShadow_12364_71449"/>
        </filter>
        <filter id="filter3_ii_12364_71449" x="-1" y="2.08789" width="24.8887" height="27.1084"
                filterUnits="userSpaceOnUse" color-interpolation-filters="sRGB">
            <feFlood flood-opacity="0" result="BackgroundImageFix"/>
            <feBlend mode="normal" in="SourceGraphic" in2="BackgroundImageFix" result="shape"/>
            <feColorMatrix in="SourceAlpha" type="matrix" values="0 0 0 0 0 0 0 0 0 0 0 0 0 0 0 0 0 0 127 0"
                           result="hardAlpha"/>
            <feOffset dx="-1" dy="-1"/>
            <feComposite in2="hardAlpha" operator="arithmetic" k2="-1" k3="1"/>
            <feColorMatrix type="matrix" values="0 0 0 0 0 0 0 0 0 0.272488 0 0 0 0 0.125344 0 0 0 0.2 0"/>
            <feBlend mode="normal" in2="shape" result="effect1_innerShadow_12364_71449"/>
            <feColorMatrix in="SourceAlpha" type="matrix" values="0 0 0 0 0 0 0 0 0 0 0 0 0 0 0 0 0 0 127 0"
                           result="hardAlpha"/>
            <feOffset dx="-1" dy="-1"/>
            <feGaussianBlur stdDeviation="1"/>
            <feComposite in2="hardAlpha" operator="arithmetic" k2="-1" k3="1"/>
            <feColorMatrix type="matrix" values="0 0 0 0 0 0 0 0 0 0.6 0 0 0 0 0.254902 0 0 0 0.6 0"/>
            <feBlend mode="normal" in2="effect1_innerShadow_12364_71449" result="effect2_innerShadow_12364_71449"/>
        </filter>
        <filter id="filter4_ii_12364_71449" x="24.7988" y="2.08984" width="22.9775" height="27.1084"
                filterUnits="userSpaceOnUse" color-interpolation-filters="sRGB">
            <feFlood flood-opacity="0" result="BackgroundImageFix"/>
            <feBlend mode="normal" in="SourceGraphic" in2="BackgroundImageFix" result="shape"/>
            <feColorMatrix in="SourceAlpha" type="matrix" values="0 0 0 0 0 0 0 0 0 0 0 0 0 0 0 0 0 0 127 0"
                           result="hardAlpha"/>
            <feOffset dx="-1" dy="-1"/>
            <feComposite in2="hardAlpha" operator="arithmetic" k2="-1" k3="1"/>
            <feColorMatrix type="matrix" values="0 0 0 0 0 0 0 0 0 0.272488 0 0 0 0 0.125344 0 0 0 0.2 0"/>
            <feBlend mode="normal" in2="shape" result="effect1_innerShadow_12364_71449"/>
            <feColorMatrix in="SourceAlpha" type="matrix" values="0 0 0 0 0 0 0 0 0 0 0 0 0 0 0 0 0 0 127 0"
                           result="hardAlpha"/>
            <feOffset dx="-1" dy="-1"/>
            <feGaussianBlur stdDeviation="1.5"/>
            <feComposite in2="hardAlpha" operator="arithmetic" k2="-1" k3="1"/>
            <feColorMatrix type="matrix" values="0 0 0 0 0 0 0 0 0 0.6 0 0 0 0 0.254902 0 0 0 0.7 0"/>
            <feBlend mode="normal" in2="effect1_innerShadow_12364_71449" result="effect2_innerShadow_12364_71449"/>
        </filter>
        <linearGradient id="paint0_linear_12364_71449" x1="63.7899" y1="4.05681" x2="63.7899" y2="31.2756"
                        gradientUnits="userSpaceOnUse">
            <stop stop-color="#47D9D8"/>
        </linearGradient>
        <linearGradient id="paint1_linear_12364_71449" x1="64.5001" y1="3.08984" x2="64.5001" y2="33.0658"
                        gradientUnits="userSpaceOnUse">
            <stop offset="0.661458" stop-color="#0014C6"/>
            <stop offset="0.833333" stop-color="#5768FF"/>
            <stop offset="0.96875" stop-color="#003DFF"/>
        </linearGradient>
        <linearGradient id="paint2_linear_12364_71449" x1="62.589" y1="2.13676" x2="62.589" y2="28.9293"
                        gradientUnits="userSpaceOnUse">
            <stop stop-color="white" stop-opacity="0"/>
            <stop offset="1" stop-color="#667FF3"/>
        </linearGradient>
        <linearGradient id="paint3_linear_12364_71449" x1="62.6831" y1="3.08984" x2="62.6831" y2="29.1979"
                        gradientUnits="userSpaceOnUse">
            <stop offset="0.03125" stop-color="#8941FF"/>
            <stop offset="0.447917" stop-color="#489CFF"/>
            <stop offset="0.572917" stop-color="white"/>
            <stop offset="0.723958" stop-color="#1E42FF"/>
            <stop offset="1" stop-color="#0094FF"/>
        </linearGradient>
        <linearGradient id="paint4_linear_12364_71449" x1="63.5445" y1="32.0982" x2="65.9483" y2="30.6729"
                        gradientUnits="userSpaceOnUse">
            <stop/>
            <stop offset="1" stop-opacity="0"/>
        </linearGradient>
        <linearGradient id="paint5_linear_12364_71449" x1="89.3458" y1="3.08887" x2="89.3458" y2="33.0648"
                        gradientUnits="userSpaceOnUse">
            <stop offset="0.661458" stop-color="#0014C6"/>
            <stop offset="0.833333" stop-color="#5768FF"/>
            <stop offset="0.96875" stop-color="#003DFF"/>
        </linearGradient>
        <linearGradient id="paint6_linear_12364_71449" x1="87.9125" y1="2.12288" x2="87.9125" y2="28.928"
                        gradientUnits="userSpaceOnUse">
            <stop stop-color="white" stop-opacity="0"/>
            <stop offset="1" stop-color="#667FF3"/>
        </linearGradient>
        <linearGradient id="paint7_linear_12364_71449" x1="87.8613" y1="3.08887" x2="87.8613" y2="29.1969"
                        gradientUnits="userSpaceOnUse">
            <stop offset="0.03125" stop-color="#8941FF"/>
            <stop offset="0.447917" stop-color="#489CFF"/>
            <stop offset="0.572917" stop-color="white"/>
            <stop offset="0.723958" stop-color="#1E42FF"/>
            <stop offset="1" stop-color="#0094FF"/>
        </linearGradient>
        <linearGradient id="paint8_linear_12364_71449" x1="115.284" y1="6.95868" x2="115.284" y2="31.6497"
                        gradientUnits="userSpaceOnUse">
            <stop stop-color="#47D9D8"/>
        </linearGradient>
        <linearGradient id="paint9_linear_12364_71449" x1="114.666" y1="3.09082" x2="114.666" y2="33.0668"
                        gradientUnits="userSpaceOnUse">
            <stop offset="0.661458" stop-color="#0014C6"/>
            <stop offset="0.833333" stop-color="#5768FF"/>
            <stop offset="0.96875" stop-color="#003DFF"/>
        </linearGradient>
        <linearGradient id="paint10_linear_12364_71449" x1="113.735" y1="2.12377" x2="113.735" y2="29.1988"
                        gradientUnits="userSpaceOnUse">
            <stop stop-color="white" stop-opacity="0"/>
            <stop offset="1" stop-color="#667FF3"/>
        </linearGradient>
        <linearGradient id="paint11_linear_12364_71449" x1="113.233" y1="3.08984" x2="113.233" y2="29.1979"
                        gradientUnits="userSpaceOnUse">
            <stop offset="0.03125" stop-color="#8941FF"/>
            <stop offset="0.447917" stop-color="#489CFF"/>
            <stop offset="0.572917" stop-color="white"/>
            <stop offset="0.723958" stop-color="#1E42FF"/>
            <stop offset="1" stop-color="#0094FF"/>
        </linearGradient>
        <linearGradient id="paint12_linear_12364_71449" x1="13.6167" y1="3.08301" x2="13.6167" y2="33.063"
                        gradientUnits="userSpaceOnUse">
            <stop offset="0.661458" stop-color="#0014C6"/>
            <stop offset="0.833333" stop-color="#5768FF"/>
            <stop offset="0.96875" stop-color="#003DFF"/>
        </linearGradient>
        <linearGradient id="paint13_linear_12364_71449" x1="19.924" y1="3" x2="19.924" y2="20.9771"
                        gradientUnits="userSpaceOnUse">
            <stop offset="0.661458" stop-color="#0014C6"/>
            <stop offset="0.833333" stop-color="#5768FF"/>
            <stop offset="0.96875" stop-color="#003DFF"/>
        </linearGradient>
        <linearGradient id="paint14_linear_12364_71449" x1="26.2778" y1="1.15396" x2="8.96061" y2="34.4533"
                        gradientUnits="userSpaceOnUse">
            <stop stop-color="#0BB15E"/>
            <stop offset="0.359318" stop-color="#B9E800"/>
        </linearGradient>
        <linearGradient id="paint15_linear_12364_71449" x1="1.4087" y1="28.2645" x2="21.9059" y2="5.27402"
                        gradientUnits="userSpaceOnUse">
            <stop stop-color="white"/>
            <stop offset="1" stop-color="white" stop-opacity="0"/>
        </linearGradient>
        <linearGradient id="paint16_linear_12364_71449" x1="11.9444" y1="3.08789" x2="11.9444" y2="29.196"
                        gradientUnits="userSpaceOnUse">
            <stop offset="0.364583" stop-color="#007A05"/>
            <stop offset="0.505792" stop-color="#E0FFC1"/>
            <stop offset="0.665291" stop-color="#DFFF1B"/>
            <stop offset="0.973958" stop-color="#1CC800"/>
        </linearGradient>
        <linearGradient id="paint17_linear_12364_71449" x1="38.8391" y1="6.95868" x2="38.8391" y2="31.6497"
                        gradientUnits="userSpaceOnUse">
            <stop stop-color="#47D9D8"/>
        </linearGradient>
        <linearGradient id="paint18_linear_12364_71449" x1="38.2212" y1="3.09082" x2="38.2212" y2="33.0668"
                        gradientUnits="userSpaceOnUse">
            <stop offset="0.661458" stop-color="#0014C6"/>
            <stop offset="0.833333" stop-color="#5768FF"/>
            <stop offset="0.96875" stop-color="#003DFF"/>
        </linearGradient>
        <linearGradient id="paint19_linear_12364_71449" x1="49.9744" y1="1.15591" x2="31.8515" y2="33.2167"
                        gradientUnits="userSpaceOnUse">
            <stop stop-color="#0BB15E"/>
            <stop offset="0.359318" stop-color="#B9E800"/>
        </linearGradient>
        <linearGradient id="paint20_linear_12364_71449" x1="28.5263" y1="29.5632" x2="40.8779" y2="3.62316"
                        gradientUnits="userSpaceOnUse">
            <stop stop-color="white"/>
            <stop offset="1" stop-color="white" stop-opacity="0"/>
        </linearGradient>
        <linearGradient id="paint21_linear_12364_71449" x1="36.7877" y1="3.08984" x2="36.7877" y2="29.1979"
                        gradientUnits="userSpaceOnUse">
            <stop offset="0.364583" stop-color="#007A05"/>
            <stop offset="0.505792" stop-color="#E0FFC1"/>
            <stop offset="0.665291" stop-color="#DFFF1B"/>
            <stop offset="0.973958" stop-color="#1CC800"/>
        </linearGradient>
    </defs>
</svg>
